<svg xmlns="http://www.w3.org/2000/svg" fill="none" viewBox="0 0 105 40" height="40" width="105">
<g clip-path="url(#clip0_1607_7946)">
<path fill="#1B1B1B" d="M19.9934 39.9179C9.06658 39.9179 0.178223 30.9852 0.178223 20.0057C0.178223 9.02617 9.06658 0.0935059 19.9934 0.0935059C30.9202 0.0935059 39.8068 9.02617 39.8068 20.0057C39.8068 30.9852 30.9185 39.9179 19.9934 39.9179ZM19.9934 1.18814C9.66899 1.18814 1.26917 9.62984 1.26917 20.0057C1.26917 30.3816 9.66725 38.8233 19.9934 38.8233C30.3195 38.8233 38.7176 30.3816 38.7176 20.0057C38.7176 9.62984 30.3169 1.18814 19.9934 1.18814Z"></path>
<path fill="#1B1B1B" d="M10.9485 24.4427C10.7922 24.4427 10.6423 24.3803 10.5318 24.2693C10.4212 24.1582 10.3591 24.0075 10.3591 23.8504V15.2366C10.365 15.0836 10.4296 14.9388 10.5394 14.8326C10.6492 14.7264 10.7957 14.6671 10.9481 14.6671C11.1005 14.6671 11.2469 14.7264 11.3567 14.8326C11.4665 14.9388 11.5312 15.0836 11.537 15.2366V23.8496C11.5371 23.9273 11.522 24.0044 11.4925 24.0763C11.463 24.1482 11.4196 24.2136 11.365 24.2686C11.3103 24.3237 11.2454 24.3674 11.174 24.3973C11.1025 24.4272 11.0259 24.4426 10.9485 24.4427ZM15.4731 26.7954C15.3168 26.7954 15.1669 26.733 15.0563 26.6219C14.9458 26.5108 14.8837 26.3602 14.8837 26.2031V17.5893C14.8896 17.4362 14.9542 17.2914 15.064 17.1852C15.1738 17.079 15.3203 17.0197 15.4727 17.0197C15.625 17.0197 15.7715 17.079 15.8813 17.1852C15.9911 17.2914 16.0557 17.4362 16.0616 17.5893V26.2031C16.0616 26.36 15.9996 26.5105 15.8893 26.6216C15.7789 26.7326 15.6292 26.7951 15.4731 26.7954ZM19.9933 29.1681C19.837 29.1681 19.6871 29.1057 19.5766 28.9946C19.4661 28.8835 19.404 28.7329 19.404 28.5758V19.962C19.4009 19.8823 19.4139 19.8029 19.4421 19.7284C19.4703 19.654 19.5132 19.586 19.5682 19.5285C19.6232 19.4711 19.6892 19.4254 19.7621 19.3942C19.8351 19.363 19.9136 19.3469 19.9929 19.3469C20.0722 19.3469 20.1507 19.363 20.2237 19.3942C20.2966 19.4254 20.3626 19.4711 20.4176 19.5285C20.4726 19.586 20.5154 19.654 20.5437 19.7284C20.5719 19.8029 20.5849 19.8823 20.5818 19.962V28.5758C20.5818 28.7327 20.5199 28.8832 20.4095 28.9943C20.2992 29.1054 20.1495 29.1679 19.9933 29.1681ZM24.5136 26.8111C24.3573 26.8111 24.2074 26.7487 24.0968 26.6376C23.9863 26.5265 23.9242 26.3759 23.9242 26.2188V17.605C23.9301 17.4519 23.9947 17.3071 24.1045 17.2009C24.2143 17.0947 24.3607 17.0354 24.5131 17.0354C24.6655 17.0354 24.812 17.0947 24.9218 17.2009C25.0316 17.3071 25.0962 17.4519 25.1021 17.605V26.2188C25.1021 26.3757 25.0401 26.5262 24.9298 26.6373C24.8194 26.7484 24.6697 26.8109 24.5136 26.8111ZM29.0338 24.4427C28.8775 24.4427 28.7276 24.3803 28.6171 24.2693C28.5065 24.1582 28.4444 24.0075 28.4444 23.8504V15.2366C28.4414 15.157 28.4544 15.0776 28.4826 15.0031C28.5108 14.9286 28.5537 14.8606 28.6087 14.8032C28.6637 14.7458 28.7297 14.7001 28.8026 14.6689C28.8756 14.6377 28.9541 14.6216 29.0334 14.6216C29.1127 14.6216 29.1912 14.6377 29.2641 14.6689C29.3371 14.7001 29.4031 14.7458 29.4581 14.8032C29.513 14.8606 29.5559 14.9286 29.5842 15.0031C29.6124 15.0776 29.6254 15.157 29.6223 15.2366V23.8496C29.6224 23.9273 29.6073 24.0044 29.5778 24.0763C29.5483 24.1482 29.505 24.2136 29.4503 24.2686C29.3957 24.3237 29.3308 24.3674 29.2593 24.3973C29.1878 24.4272 29.1112 24.4426 29.0338 24.4427ZM49.514 11.6697L54.1325 24.6935L58.8213 11.6697H61.8638L55.4755 28.5767H52.7425L46.3324 11.6697H49.514ZM67.282 28.9549C65.3655 28.9549 63.8811 28.3865 62.8287 27.2496C61.7763 26.1128 61.2501 24.5027 61.2501 22.4195C61.2383 21.5108 61.377 20.6065 61.6604 19.7436C61.9098 18.9814 62.3145 18.2799 62.8487 17.6836C63.3814 17.1057 64.0344 16.6529 64.7611 16.3575C65.5145 16.0418 66.3704 15.884 67.329 15.884C68.3025 15.884 69.1666 16.0459 69.9211 16.3697C70.6432 16.6707 71.2907 17.1272 71.8179 17.7072C72.3424 18.3005 72.7358 18.9987 72.9723 19.7558C73.2392 20.6032 73.3704 21.4879 73.3609 22.3766C73.3609 23.4506 73.2116 24.3938 72.9132 25.2063C72.6423 25.9746 72.2127 26.6766 71.6527 27.2662C71.1131 27.8252 70.4574 28.2577 69.7325 28.533C68.9484 28.8238 68.1177 28.9668 67.282 28.9549ZM67.3055 26.7761C68.4367 26.7761 69.2654 26.3854 69.7916 25.6038C70.3178 24.8222 70.5809 23.7526 70.5809 22.395C70.5809 21.0555 70.3178 19.9978 69.7916 19.222C69.2654 18.4463 68.4367 18.0596 67.3055 18.0619C66.1748 18.0619 65.3461 18.4527 64.8194 19.2343C64.2926 20.0159 64.0295 21.0697 64.0301 22.3959C64.0301 23.7354 64.2853 24.8009 64.7959 25.5924C65.3064 26.3839 66.1424 26.7788 67.3037 26.777L67.3055 26.7761ZM86.58 24.2671C86.4229 25.7354 85.9014 26.8839 85.0153 27.7127C84.1292 28.5414 82.8609 28.9558 81.2104 28.9558C80.2206 28.9558 79.3606 28.8018 78.6304 28.4937C77.9281 28.2068 77.3028 27.7579 76.8049 27.1833C76.2995 26.5855 75.9274 25.8857 75.714 25.1311C75.4689 24.2651 75.3497 23.3679 75.3602 22.4675C75.3501 21.556 75.4853 20.6487 75.7609 19.7803C76.0036 19.0118 76.402 18.302 76.931 17.6958C77.4482 17.115 78.0883 16.658 78.8043 16.3583C79.5426 16.0427 80.3829 15.8848 81.3252 15.8848C82.1887 15.8848 82.9192 15.9993 83.5166 16.2282C84.0508 16.4181 84.54 16.7169 84.9537 17.106C85.3673 17.4951 85.6964 17.966 85.9202 18.4891C86.1407 18.9967 86.2989 19.5295 86.3913 20.0756L83.7287 20.4783C83.603 19.7841 83.3634 19.2078 83.0098 18.7494C82.6563 18.2911 82.0635 18.0622 81.2313 18.0628C80.6338 18.0628 80.1389 18.1891 79.7466 18.4419C79.359 18.6893 79.0359 19.0262 78.8043 19.4247C78.5585 19.8544 78.3872 20.3229 78.2975 20.8103C78.1952 21.3328 78.144 21.8642 78.1445 22.3967C78.1411 22.9772 78.1964 23.5564 78.3097 24.1256C78.4021 24.6144 78.5786 25.0833 78.8312 25.5112C79.0626 25.894 79.3868 26.2117 79.7735 26.4346C80.1659 26.6635 80.6448 26.7779 81.2104 26.7779C82.027 26.7779 82.6474 26.561 83.0716 26.1271C83.4958 25.6932 83.7629 25.0735 83.873 24.268L86.58 24.2671ZM96.4967 26.9666C96.0313 27.5273 95.4637 27.9934 94.8242 28.3399C94.1647 28.7028 93.3635 28.8842 92.4206 28.8842C91.8708 28.8886 91.3233 28.813 90.7951 28.6597C90.3204 28.5232 89.8772 28.2937 89.4912 27.9844C89.1159 27.6751 88.8182 27.2816 88.6219 26.8356C88.3991 26.3164 88.2906 25.7549 88.3037 25.1897C88.3037 24.337 88.4921 23.6463 88.8688 23.1175C89.2487 22.5861 89.755 22.1588 90.3413 21.8743C90.9852 21.5624 91.6725 21.3509 92.3798 21.2471C93.1283 21.1295 93.8829 21.0545 94.6399 21.0226L96.4541 20.9282V20.404C96.4541 19.4722 96.2304 18.8289 95.783 18.4742C95.3356 18.1195 94.7506 17.9419 94.0279 17.9413C93.1952 17.9413 92.5786 18.0834 92.1781 18.3676C91.7777 18.6519 91.5146 19.0625 91.3888 19.5994L88.9383 19.3374C89.158 18.1382 89.6998 17.2619 90.5639 16.7087C91.4279 16.1554 92.6139 15.879 94.1218 15.8796C95.0954 15.8796 95.9004 16.006 96.5367 16.2588C97.1205 16.477 97.6417 16.8365 98.0544 17.3053C98.4373 17.7596 98.7078 18.2984 98.8437 18.8778C98.9981 19.5332 99.0732 20.2049 99.0671 20.8784V28.574H96.4993L96.4967 26.9666ZM94.7294 22.8231C94.0749 22.8506 93.4243 22.9383 92.7857 23.0851C92.2908 23.2115 91.9098 23.3734 91.6426 23.5709C91.3984 23.738 91.2129 23.9783 91.1124 24.2575C91.0243 24.5288 90.9805 24.8126 90.9829 25.0979C90.9829 25.6349 91.1518 26.0534 91.4896 26.3533C91.8275 26.6533 92.3262 26.8032 92.9857 26.8032C94.1638 26.8032 95.0357 26.5033 95.6013 25.9034C96.1669 25.3035 96.4497 24.4905 96.4497 23.4643V22.754L94.7294 22.8231ZM104.719 11.6697V28.5767H102.033V11.6697H104.719Z"></path>
</g>
<defs>
<clipPath id="clip0_1607_7946">
<rect fill="white" height="40" width="105"></rect>
</clipPath>
</defs>
</svg>
