<svg xmlns="http://www.w3.org/2000/svg" fill="none" viewBox="0 0 71 50" height="50" width="71">
<g clip-path="url(#clip0_1607_3987)">
<path fill="#1A1A1A" d="M0.756026 19.4485C0.514072 19.5489 0.262165 19.5187 0.322549 19.1473C0.554383 19.0369 0.83665 19.0971 0.756026 19.4485Z"></path>
<path fill="#1A1A1A" d="M57.3726 21.3659C57.3625 21.4165 57.423 21.3859 57.433 21.4262C57.4028 21.5365 57.4734 21.6169 57.4734 21.6974C57.4734 21.7677 57.4436 21.7778 57.433 21.848C57.4532 21.9384 57.5036 21.9685 57.5036 22.0588C57.5036 22.1391 57.4632 22.1994 57.4632 22.2697C57.4632 22.36 57.5241 22.4006 57.5338 22.4809C57.554 22.5809 57.5039 22.6612 57.5039 22.7619C57.5338 22.8523 57.635 22.9326 57.6146 23.0129C57.5242 23.023 57.4936 23.023 57.4129 23.0531C57.3323 22.9928 57.2617 22.9326 57.2316 22.8322C57.1811 22.7921 57.1311 22.8322 57.0803 22.8025C56.9799 22.7021 56.9997 22.5616 56.9697 22.4407C56.9394 22.3305 56.8689 22.2299 56.8285 22.1295C56.7777 22.0295 56.7579 21.9087 56.6773 21.8484C56.7072 21.748 56.6165 21.6476 56.5967 21.5372C56.5765 21.4569 56.5866 21.3666 56.5665 21.2865C56.5161 21.0957 56.4254 20.9754 56.2943 20.8345C56.1629 20.694 55.9718 20.5136 55.6694 20.5635C55.5482 20.5834 55.4174 20.694 55.3468 20.7743C55.1956 20.9449 55.1251 21.2062 54.8933 21.2963C54.8731 21.3967 54.8127 21.4871 54.7219 21.5372C54.702 21.7079 54.6615 21.8585 54.5707 21.9488C54.5707 22.1094 54.4901 22.1194 54.5002 22.3002C54.3792 22.4006 54.4801 22.7118 54.349 22.7921C54.3692 22.9527 54.4196 23.1932 54.3792 23.3241C54.3692 23.3843 54.4296 23.3843 54.4397 23.4343C54.4095 23.5146 54.4498 23.605 54.4498 23.7055C54.4598 23.846 54.4397 23.9966 54.4598 24.1472C54.4695 24.1874 54.5002 24.2275 54.5002 24.2778C54.5103 24.3781 54.4498 24.5087 54.5607 24.5689C54.5002 24.6294 54.6011 24.7195 54.5308 24.78C54.6115 24.9106 54.5711 25.1112 54.5913 25.3021C54.6013 25.4327 54.6518 25.5734 54.6719 25.7137C54.7018 25.8742 54.7224 26.0446 54.7425 26.1952C54.7325 26.2457 54.7724 26.2457 54.7829 26.2655C54.773 26.5569 54.8836 26.8076 54.9142 27.0686C54.9243 27.169 54.884 27.2894 54.9546 27.3497C54.9142 27.45 54.9748 27.5203 54.9848 27.621C54.9949 27.7112 54.9646 27.8013 54.9748 27.8921C54.9748 27.9426 55.0048 28.0025 55.0048 28.0426C55.0147 28.143 54.9848 28.2437 54.9949 28.3338C55.0048 28.6351 55.0853 28.9164 55.126 29.1971C55.136 29.2774 55.126 29.3677 55.136 29.4481C55.146 29.548 55.2066 29.6388 55.2166 29.7392C55.2267 29.8195 55.2066 29.8898 55.2166 29.96C55.2166 29.9901 55.2465 30.0203 55.257 30.0604C55.2872 30.1809 55.3078 30.2913 55.3377 30.4016C55.3884 30.5623 55.3884 30.7229 55.4384 30.8634C55.4888 31.014 55.6198 31.1447 55.6601 31.3051C55.6703 31.3453 55.6601 31.3854 55.6703 31.4155C55.7107 31.536 55.8012 31.6264 55.8114 31.7567C55.8214 31.827 55.7609 31.827 55.7509 31.8874C55.7807 31.9976 55.8214 32.0882 55.902 32.138C55.892 32.3087 55.9626 32.4593 55.9424 32.5998C55.9326 32.6504 55.892 32.6801 55.8819 32.7307C55.8718 32.7709 55.892 32.9214 55.892 32.9415C55.9121 33.0118 55.862 33.0419 55.862 33.122C55.7814 33.0817 55.6704 33.1021 55.5896 33.1319C55.499 33.0518 55.4284 32.9516 55.3679 32.8508C55.1461 32.8209 54.9849 32.7504 54.8741 32.6099C54.6825 32.6399 54.6123 32.5496 54.5518 32.4593C54.4612 32.7905 54.491 33.2727 54.4511 33.7442C54.4107 34.3164 54.431 35.0093 54.31 35.501C53.9369 35.4207 53.6044 35.6114 53.2113 35.6014C53.1814 35.5813 53.1814 35.5311 53.1307 35.5412C53.1008 35.3805 52.9496 35.3203 52.9291 35.1496C52.919 35.1094 52.8585 35.1094 52.8484 35.0794C52.8283 34.9087 52.7074 34.7581 52.6267 34.5975C52.5965 34.5373 52.5863 34.4873 52.5561 34.4269C52.526 34.3566 52.4654 34.3064 52.4248 34.2466C52.3141 34.0558 52.2536 33.8248 52.1324 33.6242C52.1123 33.6041 52.1223 33.5639 52.1223 33.5238C51.9611 33.3933 51.9913 33.0821 51.8401 32.9415C51.8401 32.9012 51.8401 32.8612 51.8401 32.811C51.82 32.7307 51.7494 32.6902 51.7292 32.6099C51.7094 32.5396 51.7293 32.4593 51.6994 32.389C51.6792 32.3087 51.6188 32.2584 51.5683 32.1881C51.5683 32.1479 51.5683 32.1078 51.5683 32.0573C51.5582 32.007 51.5075 31.9871 51.4975 31.9471C51.4776 31.6961 51.3462 31.5556 51.2857 31.3448C51.1951 31.4652 51.2656 31.6859 51.2454 31.7664C51.1947 31.9776 51.114 32.2282 51.1041 32.4391C51.1041 32.5293 51.1341 32.5996 51.0637 32.6602C51.0637 32.8509 50.9528 33.0714 50.8923 33.2425C50.8722 33.3027 50.8625 33.363 50.8318 33.4131C50.8017 33.4834 50.7411 33.5537 50.7008 33.624C50.6604 33.7043 50.65 33.7946 50.5694 33.8348C50.5594 33.8751 50.5794 33.8854 50.5794 33.9151C50.519 33.9051 50.5088 33.9656 50.4988 33.9954C50.4789 34.0255 50.4484 34.0657 50.4383 34.1058C50.3073 34.1058 50.2571 34.2464 50.1158 34.1861C49.9546 34.2963 49.854 34.4572 49.7227 34.5973C49.5816 34.7379 49.4404 34.8282 49.2393 34.9186C49.0373 34.8282 48.7655 34.8985 48.6543 35.0288C48.5837 34.9886 48.4932 34.9785 48.372 34.9886C48.2613 34.9083 48.2107 34.7678 48.0192 34.7778C47.9788 34.7577 47.9685 34.6975 47.9184 34.6975C47.6966 34.7075 47.606 34.5971 47.4346 34.5668C47.3943 34.5469 47.4048 34.4866 47.3741 34.4666C47.2735 34.4465 47.2028 34.3963 47.1323 34.336C47.0818 34.3558 47.0818 34.4161 47.0517 34.4462C46.9512 34.5165 46.8706 34.5868 46.7694 34.6671C46.6786 34.7374 46.5577 34.8077 46.4871 34.888C46.4364 34.9385 46.3965 35.0286 46.346 35.0992C46.2146 35.2999 46.084 35.5308 45.9529 35.7313C45.7715 36.0127 45.5898 36.2934 45.3885 36.5447C45.1869 36.8159 45.0155 37.0966 44.7938 37.3375C44.572 37.5784 44.3805 37.8397 44.189 38.1004C43.9167 38.1807 43.8664 38.4719 43.5941 38.5522C43.5741 38.6325 43.5035 38.6626 43.5136 38.7329C43.3823 38.773 43.3423 38.9035 43.2413 38.9838C43.1506 39.0641 42.9994 39.1143 42.949 39.2344C42.7877 39.2645 42.6567 39.3147 42.5659 39.4151C42.4447 39.385 42.3442 39.4553 42.2434 39.4854C42.193 39.4954 42.1728 39.4653 42.1426 39.4553C41.9914 39.5257 41.7297 39.4854 41.5181 39.4955C41.4673 39.5056 41.4673 39.4655 41.4473 39.4553C41.3867 39.4854 41.3367 39.4553 41.2961 39.4255C40.6714 39.3954 40.4396 38.9638 40.0965 38.6526C40.0965 38.5522 40.0664 38.502 40.0158 38.4517C39.9859 38.3414 39.9958 38.2406 39.9554 38.1603C39.9352 38.11 39.8848 38.0702 39.8546 38.0197C39.8247 37.9594 39.8247 37.8691 39.7841 37.8088C39.7135 37.6985 39.4817 37.598 39.4111 37.4676C39.3606 37.3675 39.3405 37.0862 39.3103 36.8355C39.2098 35.9119 39.2498 34.8775 39.1692 33.9443C39.1994 33.9443 39.2198 33.9443 39.2398 33.9542C39.1792 33.5528 39.1592 33.1207 39.0587 32.7695C39.1292 32.7193 39.0784 32.639 39.1292 32.5587C39.1393 32.5082 39.099 32.5082 39.099 32.4583C39.099 32.4085 39.1394 32.388 39.1596 32.3481C39.1596 31.8563 39.2809 31.4748 39.3309 31.023C39.2905 30.9024 39.1192 30.7922 39.1192 30.6315C39.1192 30.5613 39.1696 30.511 39.1898 30.4307C39.1998 30.3802 39.1898 30.3203 39.1898 30.2601C39.1998 30.1497 39.2502 30.0392 39.2704 29.9188C39.3208 29.6879 39.3208 29.4168 39.4014 29.1961C39.4316 29.1058 39.5123 29.0254 39.5425 28.9249C39.5933 28.7743 39.5727 28.6842 39.6739 28.5837C39.7038 28.3529 39.7445 28.122 39.855 27.9613C39.845 27.9413 39.8752 27.881 39.845 27.881C39.9764 27.7305 39.9863 27.4697 40.1173 27.3193C40.1072 27.2891 40.0668 27.3092 40.0769 27.2586C40.1675 27.098 40.2583 26.9377 40.2789 26.7069C40.3895 26.5563 40.5106 26.4356 40.5306 26.1945C40.5812 26.1243 40.6312 26.064 40.6618 25.9737C40.6518 25.9234 40.7224 25.9636 40.7324 25.9334C40.7324 25.652 40.9743 25.4816 41.0449 25.2307C41.2259 25.0702 41.2666 24.769 41.4682 24.6283C41.579 24.1466 42.0226 23.996 42.3048 23.6848C42.4056 23.7048 42.4963 23.6145 42.5771 23.6145C42.6174 23.6145 42.6376 23.6443 42.6778 23.6245C42.859 23.5142 43.1819 23.5843 43.3431 23.6647C43.3835 23.6547 43.373 23.7151 43.3835 23.735C43.4137 23.7451 43.4642 23.7551 43.5149 23.7451C43.5854 23.8756 43.7467 23.9057 43.8273 24.0261C43.9884 23.9964 43.9884 24.1165 44.1197 24.1065C44.2104 24.2169 44.2909 24.3373 44.4321 24.3879C44.462 24.5084 44.5427 24.5682 44.6338 24.6288C44.7144 24.8694 44.8656 25.0401 45.0168 25.2212C45.0067 25.4018 45.168 25.5324 45.1982 25.6829C45.2082 25.7331 45.1982 25.8034 45.1982 25.8536C45.2181 26.0544 45.3594 26.215 45.3694 26.4359C45.3893 26.5061 45.3087 26.4863 45.3087 26.5362C45.3594 26.7069 45.3087 26.988 45.4095 27.1185C45.4295 27.1888 45.3389 27.1888 45.3792 27.2289C45.4399 27.5903 45.4499 28.1525 45.3694 28.4938C45.3594 28.5541 45.42 28.5444 45.4098 28.5942C45.3392 28.6745 45.3795 28.785 45.3694 28.8853C45.3594 28.9455 45.3087 28.9957 45.2987 29.056C45.2583 29.2166 45.2987 29.4174 45.188 29.5177C45.1981 29.6482 45.1578 29.7386 45.1074 29.8089C45.0873 30.1401 44.9862 30.371 44.8351 30.5718C44.825 30.6121 44.855 30.6121 44.845 30.6521C44.8046 30.7224 44.7544 30.7927 44.7643 30.9233C44.6537 31.0136 44.6537 31.1541 44.5932 31.275C44.5425 31.3752 44.4119 31.4758 44.3209 31.5862C44.1495 31.787 43.9983 32.0479 43.8272 32.2488C43.7366 32.3591 43.6154 32.4395 43.5348 32.5299C43.4944 32.5701 43.4742 32.6302 43.4343 32.6708C43.3537 32.751 43.2323 32.7708 43.1924 32.8816C43.0815 32.8716 43.0513 32.9519 43.011 33.0121C42.7593 33.1125 42.608 33.3133 42.3155 33.3835C42.2751 33.3936 42.2751 33.4341 42.2449 33.4538C42.0737 33.4241 42.0333 33.6144 41.9226 33.6749C41.822 33.7353 41.6807 33.6847 41.5801 33.7851C41.6305 33.8554 41.5801 33.9558 41.5801 34.0361C41.57 34.3071 41.6001 34.6384 41.5801 34.9395C41.57 35.12 41.5499 35.3812 41.6406 35.5318C41.6608 35.5922 41.57 35.5721 41.6107 35.6121C41.7012 35.9233 41.6612 36.3551 41.7618 36.6361C41.9533 36.7261 42.0341 36.9372 42.0543 37.198C42.1047 37.2682 42.2458 37.2583 42.3264 37.3083C42.3264 37.4589 42.3566 37.5794 42.5078 37.5794C42.5582 37.5596 42.5482 37.4891 42.5884 37.4692C42.7296 37.3789 42.9109 37.3383 42.9814 37.1779C43.425 36.9769 43.7475 36.636 44.06 36.2943C44.1205 36.234 44.1605 36.1437 44.2112 36.0834C44.3116 35.973 44.4429 35.9028 44.5336 35.8021C44.6342 35.7019 44.7251 35.5912 44.8059 35.481C44.9772 35.2502 45.0678 34.9788 45.189 34.688C45.4108 34.1559 45.6425 33.6138 45.8543 33.0015C45.8643 32.9613 45.9349 32.9513 45.9651 32.9014C45.995 32.8612 46.0155 32.7308 46.0656 32.6302C46.1163 32.52 46.2469 32.4094 46.2169 32.2387C46.2069 32.1685 46.1663 32.1386 46.1364 32.0882C46.1163 31.7368 46.0357 31.3655 46.005 30.9942C46.005 30.9139 46.0151 30.8336 46.005 30.7534C45.995 30.6631 45.9345 30.5626 45.9345 30.4719C45.9345 30.3617 46.005 30.241 45.9244 30.1509C45.9144 30.1005 45.9546 30.1005 45.9648 30.0806C45.9244 30.0302 45.9041 29.9804 45.9648 29.9399C45.864 29.719 45.864 29.0163 45.9648 28.7552C45.9847 28.5541 45.9346 28.3537 45.9546 28.1628C45.9648 28.0826 45.995 28.0023 45.995 27.922C46.005 27.7208 45.9651 27.4799 46.0557 27.3394C46.0757 27.0985 46.0256 26.8579 46.0657 26.6369C46.0757 26.5864 46.1061 26.5567 46.1263 26.5061C46.1562 26.3756 46.1163 26.2454 46.1363 26.1247C46.1462 26.0644 46.1969 26.0145 46.2069 25.9541C46.2269 25.8335 46.1868 25.6231 46.2675 25.5428C46.3079 25.1911 46.4186 24.9104 46.4488 24.5589C46.4387 24.5084 46.4993 24.5389 46.5093 24.4984C46.5193 24.2073 46.6303 24.0269 46.6505 23.7555C46.6505 23.6953 46.711 23.7153 46.7211 23.6752C46.7211 23.625 46.7211 23.5748 46.7211 23.5246C46.7511 23.4744 46.7815 23.4443 46.8017 23.3941C46.8421 23.3038 46.8316 23.1732 46.8723 23.0829C46.8923 23.0226 46.9629 22.9825 46.9829 22.9323C47.013 22.862 46.993 22.7717 47.0233 22.6914C47.0433 22.6411 47.0938 22.6111 47.1239 22.5608C47.1945 22.4401 47.2145 22.3099 47.3051 22.2196C47.3252 22.1793 47.3051 22.1194 47.3152 22.1094C47.3657 22.0588 47.3657 21.9588 47.4463 21.9287C47.507 21.5773 47.8698 21.3866 47.89 21.0854C48.0007 21.0051 48.0611 20.8846 48.1018 20.734C48.1724 20.6637 48.2629 20.6032 48.2731 20.4628C48.3236 20.4126 48.4042 20.3925 48.4542 20.3526C48.5549 20.2623 48.5953 20.1217 48.676 20.0114C48.7767 19.8808 48.9078 19.7805 48.9884 19.6499C49.0992 19.6399 49.1698 19.7302 49.2404 19.7805C49.4521 19.9311 49.6638 20.0816 49.8957 20.2322C49.9056 20.353 50.0469 20.353 50.0469 20.4732C50.1781 20.4732 50.1881 20.5939 50.3193 20.6039C50.3393 20.7445 50.4299 20.8248 50.5309 20.8851C50.5511 20.9149 50.5209 20.9253 50.5411 20.9654C50.6015 21.0156 50.6622 21.0756 50.7428 21.106C50.7128 21.3068 50.8841 21.4272 50.924 21.5877C50.9644 21.7284 50.924 21.889 50.9846 22.0495C50.9946 22.0897 50.9442 22.0897 50.9442 22.1199C50.9846 22.1801 50.9846 22.3307 50.9442 22.3909C51.0348 22.6218 50.9542 22.933 50.9542 23.2043C50.9542 23.2445 50.9946 23.2747 50.9946 23.3145C51.0047 23.3948 50.9647 23.4852 50.9647 23.5857C50.9647 23.626 51.0051 23.6759 51.0051 23.7164C51.0251 23.8369 50.9546 23.9372 51.0455 24.0075C51.0555 24.0678 50.9948 24.0678 50.9848 24.1078C51.0956 24.2484 50.9948 24.4992 51.0252 24.7301C51.0353 24.7805 51.0656 24.8203 51.0656 24.8707C51.0755 24.9709 51.0049 25.1017 51.106 25.152C51.1161 25.2024 51.0554 25.182 51.0656 25.2323C51.1662 25.5635 51.1868 25.935 51.2367 26.2362C51.2469 26.2964 51.2669 26.3464 51.2771 26.4068C51.2871 26.447 51.3175 26.497 51.3377 26.5474C51.3781 26.6879 51.3477 26.8486 51.3781 26.9891C51.3879 27.0293 51.4185 27.0594 51.4386 27.0994C51.5092 27.3103 51.4686 27.5412 51.5798 27.752C51.5898 27.8123 51.5394 27.8123 51.5394 27.8624C51.5694 27.993 51.61 28.113 51.61 28.2737C51.6706 28.384 51.7207 28.5449 51.7412 28.6652C51.7412 28.7254 51.7712 28.7555 51.8118 28.7755C51.7612 28.8961 51.8418 29.0064 51.8724 29.0964C51.9025 29.1968 51.8724 29.3076 51.9529 29.3676C51.943 29.5081 51.983 29.5985 52.0335 29.6788C52.0135 29.8493 52.084 29.9599 52.1342 30.1005C52.1642 30.2108 52.1642 30.3314 52.1948 30.4217C52.2352 30.5623 52.4065 30.693 52.336 30.8735C52.4467 31.0642 52.4771 31.3152 52.5377 31.5662C52.5781 31.7268 52.5984 31.8874 52.6182 32.0279C52.6283 32.0882 52.6689 32.1584 52.719 32.2085C52.719 32.4295 52.8501 32.6 52.9003 32.7704C52.9202 32.8307 52.9103 32.8912 52.9303 32.9411C52.9604 33.0113 53.0209 33.0615 53.0109 33.1519C53.0513 33.172 53.0615 33.2322 53.0916 33.2622C53.2127 33.2523 53.3233 33.0611 53.4444 33.182C53.5351 32.9912 53.5956 32.7704 53.6862 32.5292C53.8981 31.9674 53.8981 31.3245 53.9987 30.6724C54.0289 30.4415 54.0693 30.301 54.0088 30.0798C53.9788 29.9696 53.9684 29.8492 53.9081 29.7688C53.9381 29.6886 53.9181 29.5577 53.8781 29.518C53.9286 29.4577 53.8781 29.277 53.8174 29.2368C53.8174 28.9759 53.7269 28.8048 53.7068 28.5639C53.7168 28.5137 53.6563 28.5441 53.6462 28.5037C53.6866 28.4233 53.6161 28.3232 53.6362 28.1824C53.6262 28.1422 53.5958 28.1222 53.5757 28.0823C53.6056 27.8712 53.4749 27.8111 53.5052 27.6006C53.5151 27.5303 53.4444 27.5503 53.4444 27.4903C53.404 27.0889 53.3133 26.868 53.2732 26.4461C53.2732 26.3958 53.2226 26.3958 53.2126 26.3658C53.2126 26.3155 53.2126 26.2755 53.2126 26.2252C53.122 26.0446 53.1421 25.7634 53.0615 25.5727C53.0615 25.5425 53.0615 25.5325 53.0915 25.5325C53.041 25.4622 53.0615 25.3016 53.0109 25.2413C53.0008 25.161 53.0309 25.0707 53.0109 24.9701C53.0008 24.9099 52.9503 24.8496 52.9403 24.7897C52.9202 24.6489 52.9503 24.4983 52.9303 24.3477C52.9202 24.2774 52.8798 24.2172 52.8697 24.1469C52.8496 23.9863 52.8898 23.8357 52.8697 23.6952C52.8496 23.5948 52.769 23.5145 52.7891 23.414C52.7386 23.404 52.7386 23.3337 52.6885 23.3137C52.6179 23.3337 52.6078 23.404 52.5572 23.4442C52.4162 23.4743 52.3456 23.565 52.2348 23.6249C52.1743 23.6349 52.1543 23.6048 52.0936 23.6149C52.0737 23.4442 52.013 23.3237 51.8819 23.2634C51.8114 23.0929 51.7106 22.9921 51.7006 22.8016C51.6906 22.7213 51.7106 22.6211 51.7106 22.5203C51.7106 22.4201 51.6906 22.3094 51.7006 22.2291C51.7006 22.1788 51.7307 22.1189 51.741 22.0585C51.761 21.9179 51.761 21.8078 51.8014 21.667C51.8216 21.5769 51.852 21.4661 51.872 21.4163C51.9021 21.356 51.9628 21.326 52.0032 21.2657C52.1039 21.1051 52.1344 20.8943 52.215 20.7739C52.2856 20.6637 52.4065 20.5934 52.3962 20.4527C52.5274 20.4024 52.638 20.3321 52.7592 20.2823C52.7996 20.3021 52.7792 20.3925 52.8198 20.4229C52.9509 20.5735 53.2533 20.6137 53.4446 20.5231C53.5252 20.4829 53.6865 20.3021 53.7372 20.212C53.767 20.1718 53.767 20.1017 53.7976 20.0614C53.8581 19.9711 53.9688 19.9611 53.9688 19.8603C53.9889 19.8603 54.0193 19.8603 54.0395 19.8603C54.1 19.77 54.1605 19.6798 54.2512 19.6194C54.4024 19.6194 54.483 19.5491 54.5738 19.449C54.6242 19.4088 54.6744 19.3787 54.7148 19.3387C54.7552 19.2885 54.7753 19.2082 54.8255 19.1681C54.8659 19.1383 54.9668 19.1078 55.0373 19.0681C55.1785 18.9977 55.2892 18.9473 55.4504 18.8874C55.521 18.8574 55.6115 18.8171 55.6722 18.8171C55.7327 18.8171 55.7528 18.8574 55.8133 18.8874C55.9239 18.9376 56.1158 19.0081 56.2064 19.0882C56.297 19.1587 56.3476 19.2789 56.4888 19.3093C56.66 19.5805 56.8817 19.801 57.013 20.1124C57.0835 20.1626 57.1137 20.2529 57.1843 20.293C57.2448 20.5336 57.3154 20.6645 57.396 20.8753C57.3758 20.8954 57.3758 20.8854 57.3556 20.8753C57.4262 20.9356 57.4062 21.0762 57.4363 21.1664C57.4363 21.2067 57.4062 21.2268 57.3959 21.2468C57.3924 21.3157 57.4431 21.3859 57.3726 21.3659ZM49.4295 23.3937C49.1074 24.0663 48.8852 24.6484 48.734 25.4818C48.5425 25.6223 48.603 26.0236 48.5325 26.2745C48.5123 26.3348 48.4719 26.3849 48.4619 26.4452C48.4518 26.5255 48.4719 26.6158 48.4619 26.6961C48.4317 26.917 48.3207 27.1378 48.3813 27.3687C48.2805 27.429 48.3308 27.5696 48.3107 27.69C48.3006 27.7402 48.2502 27.78 48.2401 27.8406C48.2099 27.9711 48.22 28.1417 48.1997 28.3022C48.1799 28.4627 48.1391 28.6333 48.1391 28.7639C48.1391 28.8742 48.1899 28.9749 48.1093 29.0453C48.2097 29.1455 48.1093 29.2561 48.0993 29.3864C48.0691 29.6273 48.1291 29.9087 48.0891 30.1297C48.0691 30.2 48.1698 30.1394 48.1597 30.2C48.1799 30.2803 48.1092 30.2803 48.0993 30.3305C48.2203 30.4208 48.1191 30.5613 48.1093 30.6717C48.1093 30.8123 48.1597 30.9827 48.1799 31.1333C48.2505 31.595 48.3609 32.0668 48.502 32.388C48.7948 32.1471 48.956 31.8058 49.0871 31.4344C49.0971 31.3942 49.1475 31.3841 49.1576 31.3544C49.1576 31.3142 49.1576 31.2838 49.1576 31.244C49.1777 31.2038 49.2181 31.1637 49.2383 31.1135C49.2887 31.0131 49.2786 30.8625 49.3189 30.732C49.3386 30.6815 49.3794 30.6517 49.3894 30.6012C49.4298 30.4706 49.4096 30.32 49.4898 30.2197C49.4495 30.1095 49.51 30.0791 49.5302 29.9988C49.5302 29.9386 49.5302 29.8886 49.5202 29.8482C49.6613 29.6374 49.631 29.2459 49.7218 28.975C49.7419 28.9148 49.7019 28.9048 49.6919 28.8647C49.7121 28.8349 49.7524 28.8144 49.7524 28.7646C49.7121 28.4635 49.8331 28.2125 49.7826 27.9916C49.883 27.7608 49.7826 27.4894 49.8125 27.2485C49.8225 27.1682 49.8633 27.1078 49.873 27.0275C49.883 26.9173 49.873 26.7966 49.873 26.6864C49.8431 25.9334 49.7319 25.2107 49.7019 24.4578C49.7019 24.4072 49.6412 24.3975 49.6314 24.3574C49.6412 24.2871 49.6012 24.1767 49.5508 24.1366C49.5705 24.0059 49.4295 23.8254 49.5407 23.7148C49.4299 23.6643 49.5508 23.464 49.4702 23.4037C49.4501 23.3937 49.44 23.3937 49.4295 23.3937ZM44.2491 26.3452C43.6645 26.7166 43.2814 27.2888 42.7371 27.7004C42.6565 27.8313 42.6263 28.0217 42.4851 28.0823C42.5053 28.2228 42.4146 28.2525 42.3743 28.3329C42.3743 28.3731 42.3743 28.4132 42.3743 28.4634C42.2433 28.6542 42.1227 28.8649 42.1022 29.1661C42.0014 29.2464 41.9913 29.3672 41.951 29.4873C41.9308 29.5576 41.8804 29.6178 41.8703 29.668C41.8401 29.7985 41.8602 29.8889 41.8401 30.0194C41.8304 30.0495 41.7796 30.0394 41.7796 30.0896C41.7696 30.2402 41.709 30.3506 41.6791 30.4811C41.8102 30.4711 41.9208 30.5715 42.042 30.5614C42.1832 30.5614 42.3744 30.4811 42.5357 30.4309C43.0296 30.3 43.5337 30.0896 43.9067 29.8989C43.9067 29.768 44.048 29.7781 44.0174 29.6277C44.0678 29.6377 44.088 29.6077 44.1182 29.5979C44.3903 29.1061 44.5717 28.3832 44.6017 27.7003C44.6117 27.5199 44.5919 27.4191 44.5311 27.3188C44.5919 27.0979 44.36 26.767 44.3799 26.4153C44.35 26.3651 44.2894 26.4454 44.2794 26.4153C44.289 26.4054 44.3095 26.3452 44.2491 26.3452Z"></path>
<path fill="#1A1A1A" d="M68.5306 31.0436C68.6213 31.0536 68.6011 31.1742 68.571 31.2445C68.5306 31.2043 68.5205 31.0735 68.5306 31.0436Z"></path>
<path fill="#1A1A1A" d="M40.6305 40.6506C40.6305 40.6103 40.6709 40.6 40.6607 40.5401C40.7817 40.4598 40.8925 40.3193 41.0538 40.4096C41.0736 40.5 41.1344 40.5803 41.0942 40.6907C41.1546 40.8011 41.2655 40.8216 41.2962 40.9722C41.326 41.1425 41.1546 41.173 41.1148 41.293C41.0643 41.2633 40.9935 41.3231 40.9131 41.3231C40.7619 41.3332 40.6611 41.2529 40.5905 41.1726C40.5705 41.0822 40.5501 41.0019 40.5603 40.8915C40.6007 40.8614 40.6209 40.8011 40.6712 40.7811C40.6405 40.7509 40.6809 40.661 40.6305 40.6506Z"></path>
<path fill="#1A1A1A" d="M41.3662 40.9018C41.2348 40.8116 41.2654 40.6409 41.3258 40.5104C41.4471 40.4 41.5677 40.4 41.7493 40.4301C41.7791 40.4903 41.8599 40.5104 41.8903 40.5706C41.8703 40.7509 41.759 40.8417 41.6686 40.932C41.6282 40.9023 41.598 40.9622 41.5679 40.9622C41.5779 40.9622 41.457 40.9421 41.4368 40.932C41.4166 40.9217 41.3662 40.8513 41.3662 40.9018Z"></path>
<path fill="#1A1A1A" d="M53.2198 16.1056C53.2299 16.0955 53.3105 16.1357 53.3307 16.1658C53.2803 16.216 53.2597 16.1156 53.2198 16.1056Z"></path>
<path fill="#1A1A1A" d="M10.9564 10.4437C11.0269 10.4437 11.0975 10.4437 11.1781 10.4437C11.208 10.524 11.1274 10.5043 11.1177 10.5541C11.1781 10.5541 11.1882 10.5139 11.2588 10.5139C11.2992 10.534 11.2689 10.5744 11.3394 10.5541C11.4398 10.5541 11.6317 10.524 11.591 10.6746C11.6918 10.6549 11.7019 10.7352 11.7325 10.785C11.7523 10.8452 11.6921 10.8252 11.6817 10.8653C11.7926 10.8552 11.803 10.9858 11.7825 11.0456C11.7421 11.0962 11.7019 11.0054 11.6817 11.0556C11.6918 11.1162 11.7523 11.0456 11.7926 11.0656C11.8225 11.0857 11.8531 11.1059 11.8531 11.156C11.8026 11.2162 11.6717 11.2062 11.6112 11.2564C11.7325 11.2663 11.7624 11.1761 11.8938 11.2058C11.9135 11.2961 11.8938 11.3564 11.9237 11.4367C11.9538 11.517 12.0749 11.5575 12.0043 11.6478C12.0849 11.6278 12.0849 11.6776 12.1051 11.7182C12.0749 11.7985 11.9438 11.7985 11.9135 11.8884C11.8938 11.9587 11.9539 12.0193 11.9539 12.1193C11.8733 12.1896 11.8327 12.3305 11.8933 12.4606C11.8427 12.5108 11.8833 12.5811 11.8833 12.641C11.8833 12.671 11.8632 12.7114 11.8632 12.7413C11.8531 12.9521 11.9036 13.093 11.9237 13.2332C11.9338 13.3434 11.9136 13.4838 11.9338 13.6147C11.9439 13.7249 11.9842 13.8455 11.9742 13.9456C11.9742 14.006 11.9442 14.0664 11.9338 14.1263C11.9237 14.317 12.0245 14.4675 12.0548 14.5981C12.0648 14.6382 12.0548 14.6882 12.0548 14.7286C12.0648 14.8089 12.1156 14.8792 12.1256 14.9394C12.1256 14.9695 12.1156 15.0197 12.1156 15.0702C12.1156 15.1205 12.156 15.1703 12.156 15.2108C12.156 15.2511 12.1056 15.2811 12.1056 15.3109C12.1056 15.3109 12.1256 15.3409 12.1354 15.3512C12.1962 15.5317 12.216 15.7929 12.1862 15.9736C12.2467 16.0137 12.1962 16.1141 12.206 16.1844C12.206 16.2547 12.2464 16.3249 12.2568 16.4153C12.2768 16.6261 12.2467 16.867 12.3172 17.0276C12.3273 17.0778 12.2768 17.0576 12.2971 17.118C12.3579 17.3388 12.3375 17.66 12.3479 17.9412C12.3579 17.9914 12.4083 18.0014 12.4285 18.0514C12.4184 18.1018 12.3479 18.1018 12.3777 18.1516C12.3777 18.202 12.3979 18.2419 12.4079 18.2822C12.4079 18.3022 12.3878 18.3022 12.3878 18.3122C12.3878 18.3323 12.418 18.3222 12.418 18.3525C12.418 18.3824 12.418 18.4128 12.3979 18.4526C12.4785 18.6936 12.4986 19.065 12.4986 19.3561C12.5285 19.3862 12.5491 19.4364 12.5692 19.4969C12.5591 19.5167 12.4986 19.5068 12.5185 19.5573C12.5385 19.6075 12.5692 19.6778 12.5487 19.7376C12.5688 19.7677 12.6293 19.7476 12.6293 19.798C12.6494 19.9685 12.6999 20.0992 12.6897 20.2897C12.7199 20.3299 12.7704 20.36 12.7905 20.4104C12.8309 20.5106 12.7805 20.6612 12.8006 20.8117C12.8106 20.8722 12.851 20.9424 12.851 21.0025C12.9115 21.4543 12.8106 21.9864 12.9316 22.3578C12.9518 22.408 12.9014 22.408 12.8912 22.4381C12.9621 22.4883 12.9718 22.6389 12.9718 22.7493C12.9718 22.8295 12.9621 22.9098 12.9519 22.9702C13.0425 23.1007 13.0225 23.2814 13.0524 23.4722C13.0624 23.5825 13.1132 23.6831 13.1231 23.7734C13.1431 24.0242 12.9818 24.3054 12.9919 24.5663C13.0019 24.6066 13.0221 24.6166 13.0323 24.6666C13.0423 24.7169 13.0223 24.7768 13.0223 24.8271C13.0223 24.9777 13.0929 25.1583 13.1029 25.3189C13.1128 25.3793 13.0929 25.4496 13.1029 25.4995C13.1128 25.5497 13.1533 25.5997 13.1735 25.6501C13.2033 25.7707 13.2033 25.9109 13.234 26.0316C13.244 26.0615 13.2641 26.0718 13.2743 26.0918C13.2842 26.1218 13.2743 26.1522 13.2743 26.1822C13.2842 26.2524 13.2743 26.3227 13.2943 26.393C13.3044 26.4634 13.3346 26.5336 13.345 26.6039C13.3749 26.7947 13.3955 26.9451 13.4557 27.0957C13.4355 27.2263 13.4859 27.3165 13.5262 27.4269C13.5463 27.4971 13.5867 27.5575 13.6068 27.6277C13.6371 27.7081 13.6269 27.7984 13.6472 27.8786C13.6571 27.9389 13.6977 27.9888 13.7179 28.0391C13.7477 28.1598 13.7477 28.29 13.7783 28.4207C13.7985 28.5209 13.8288 28.6919 13.859 28.7722C13.879 28.8225 13.9396 28.8625 13.9497 28.9128C13.9694 28.9731 13.9596 29.0534 13.9796 29.1237C14.0199 29.3347 14.1008 29.5756 14.1008 29.7661C14.1008 29.8164 14.0908 29.8563 14.0908 29.9066C14.0908 29.967 14.1311 30.0274 14.1311 30.0872C14.1311 30.1275 14.1114 30.1575 14.1114 30.1974C14.1114 30.2174 14.1311 30.2578 14.1412 30.2777C14.1614 30.388 14.1412 30.4583 14.1211 30.549C14.1718 30.7498 14.2823 30.9304 14.2424 31.1712C14.2323 31.2615 14.1618 31.3722 14.1315 31.4625C14.0912 31.583 14.061 31.6834 14.0312 31.7836C14.0009 31.8135 14.0816 31.834 14.061 31.8938C13.9904 31.9741 14.0912 32.165 13.9504 32.185C13.8897 32.195 13.9302 32.0947 13.8996 32.0748C13.8592 32.1649 13.7286 32.2053 13.6878 32.3156C13.6778 32.3454 13.6778 32.4362 13.6678 32.496C13.6479 32.6267 13.6274 32.7369 13.6579 32.8676C13.5266 33.0181 13.4261 33.1987 13.3754 33.4196C13.2948 33.4599 13.2343 33.52 13.1637 33.5602C13.1738 33.6705 13.1335 33.7408 13.1132 33.8314C12.9819 33.8314 12.8714 33.8817 12.7602 33.8716C12.6595 33.8617 12.5889 33.7714 12.4879 33.7914C12.2964 33.5705 12.0142 33.4299 11.8429 33.189C11.8129 33.1487 11.7824 33.1187 11.7925 33.0584C11.6513 32.9981 11.6111 32.8375 11.51 32.7372C11.51 32.7073 11.51 32.667 11.5 32.647C11.3893 32.5064 11.2782 32.3657 11.2277 32.1553C10.966 31.9144 10.8852 31.4825 10.6734 31.1813C10.6634 31.0506 10.5929 30.9905 10.5524 30.9001C10.5222 30.8397 10.5222 30.7695 10.4718 30.7196C10.4718 30.6093 10.4113 30.539 10.381 30.4588C10.3407 30.3785 10.3307 30.2782 10.2601 30.2079C10.2601 30.178 10.2601 30.1375 10.2601 30.1077C10.1089 29.9371 10.0686 29.6559 9.9676 29.4349C9.94762 29.3947 9.917 29.3746 9.90688 29.3347C9.89693 29.3147 9.917 29.2843 9.90688 29.2544C9.88698 29.2244 9.83638 29.2744 9.85645 29.2142C9.86657 29.1538 9.83638 29.1339 9.84642 29.0836C9.74572 28.9229 9.70533 28.7121 9.63474 28.5415C9.58405 28.421 9.55411 28.3006 9.50351 28.17C9.46312 28.0697 9.39287 27.9792 9.39287 27.8588C9.32228 27.7585 9.28205 27.638 9.26164 27.4974C9.16103 27.3568 9.09044 27.1963 9.03993 27.0056C8.95931 26.9858 8.99953 26.9056 8.93923 26.8851C8.86865 26.5236 8.69736 26.2927 8.60662 25.9211C8.49597 25.8209 8.48568 25.6499 8.42547 25.5097C8.38507 25.4094 8.32477 25.319 8.29416 25.2186C8.22366 25.0074 8.1131 24.807 8.07245 24.5861C8.02202 24.5661 8.0119 24.5258 7.99182 24.4858C7.8708 24.2449 7.84061 23.9941 7.6894 23.7832C7.66941 23.7633 7.6894 23.6929 7.64909 23.683C7.66891 23.8336 7.67903 24.0242 7.60869 24.1148C7.44753 24.1348 7.26613 24.1348 7.17522 24.2353C7.23577 24.2156 7.21561 24.2959 7.18534 24.2959C7.26596 24.3762 7.18534 24.4564 7.17522 24.5268C7.17522 24.587 7.17522 24.6773 7.17522 24.7376C7.17522 24.7675 7.21561 24.8078 7.21561 24.838C7.21561 24.8677 7.19562 24.8477 7.19562 24.8677C7.18567 24.8878 7.20558 24.8978 7.20558 24.9079C7.22556 25.0585 7.18567 25.2292 7.19562 25.3896C7.19562 25.44 7.22556 25.4799 7.22556 25.5304C7.22556 25.6809 7.14494 25.8315 7.15506 25.9921C7.14494 26.0624 7.22556 26.0324 7.21561 26.0922C7.15506 26.2728 7.2862 26.7849 7.17522 26.9455C7.27591 27.1464 7.13482 27.3873 7.12462 27.6182C7.11466 27.7489 7.18534 27.8894 7.10471 27.9997C7.15514 27.9997 7.14502 28.0601 7.18534 28.0899C7.16518 28.1099 7.14494 28.1403 7.14494 28.1802C7.21561 28.3008 7.19571 28.5114 7.20574 28.7023C7.31639 28.7926 7.22556 29.124 7.31639 29.2744C7.28637 29.3951 7.36691 29.4954 7.3465 29.6459C7.33655 29.6962 7.39701 29.6658 7.38689 29.7062C7.3465 29.7465 7.38689 29.7965 7.38689 29.8468C7.39701 30.128 7.38689 30.5798 7.4375 30.8406C7.36691 31.0113 7.43749 31.3225 7.347 31.4731C7.347 31.5233 7.347 31.5633 7.35696 31.6036C7.25626 31.8145 7.30627 32.0754 7.23577 32.2862C7.19537 32.407 7.10471 32.5171 7.10471 32.6677C7.14502 32.7884 7.2458 32.8484 7.23577 32.9688C7.22565 33.1095 7.03412 33.24 7.15514 33.3906C7.06449 33.4609 7.02409 33.5914 6.97399 33.7018C7.00393 33.782 7.03455 33.8324 7.02451 33.9127C7.01439 33.9629 6.95392 34.0129 6.92373 34.0832C6.8733 34.2038 6.85314 34.334 6.81309 34.4447C6.78289 34.4849 6.87364 34.505 6.85348 34.5752C6.79301 34.6555 6.72243 34.7159 6.66196 34.7961C6.68178 34.8262 6.7726 34.8467 6.74258 34.8965C6.66196 34.9567 6.49059 34.9367 6.38939 34.9768C6.41958 35.0671 6.56076 35.037 6.58091 35.1274C6.5002 35.2177 6.35903 35.3382 6.22772 35.3782C6.05652 35.4285 5.82469 35.3782 5.64303 35.3981C5.56241 35.3277 5.57253 35.2276 5.5323 35.1473C5.43178 34.9264 5.23992 34.766 5.19994 34.4745C5.09925 34.3844 5.10928 34.2438 5.06863 34.1436C5.04881 34.0932 4.99813 34.0532 4.97814 34.0029C4.96819 33.983 4.96819 33.9524 4.96819 33.9226C4.93792 33.8324 4.86741 33.7521 4.85729 33.6314C4.7162 33.5007 4.72624 33.23 4.59552 33.0894C4.60555 32.9686 4.5149 32.8784 4.4847 32.7881C4.43427 32.6276 4.44431 32.467 4.33349 32.3463C4.34361 32.1658 4.22285 32.1254 4.24283 31.9449C4.1924 31.9047 4.18228 31.8142 4.14239 31.7644C4.13227 31.6337 4.0718 31.5434 4.03158 31.4532C4.01142 31.3929 3.98114 31.3325 3.96099 31.2624C3.85034 30.9008 3.69905 30.5598 3.5981 30.1278C3.51747 30.0575 3.48728 29.9371 3.47683 29.7968C3.33573 29.4756 3.21505 28.9435 3.08383 28.4918C3.08383 28.4515 3.03331 28.4617 3.03331 28.4115C3.01316 28.2908 2.993 28.1806 2.96281 28.0703C2.93262 27.9702 2.8821 27.8795 2.85199 27.7891C2.84221 27.7691 2.86203 27.6789 2.86203 27.6385C2.85199 27.5179 2.77154 27.3976 2.74101 27.257C2.73097 27.2068 2.73097 27.1365 2.72085 27.0765C2.72085 27.0261 2.66039 27.0362 2.67042 26.9763C2.69041 26.8057 2.5898 26.6451 2.54923 26.4845C2.50884 26.3339 2.4886 26.1734 2.46861 26.0127C2.40797 25.6918 2.36808 25.3906 2.3174 25.1091C2.28746 24.9585 2.22691 24.7979 2.20675 24.6574C2.19672 24.567 2.18668 24.4968 2.16636 24.4064C2.14645 24.3361 2.11584 24.2558 2.09569 24.1755C2.08573 24.1253 2.09569 24.0653 2.09569 24.0249C2.08573 23.8944 2.03522 23.7743 2.01506 23.6435C2.01506 23.6137 2.02518 23.5633 2.01506 23.5333C2.00511 23.4828 1.97475 23.443 1.96463 23.3927C1.95459 23.3323 1.96463 23.2619 1.94447 23.2019C1.93452 23.1316 1.89404 23.0613 1.87397 22.9911C1.83357 22.8304 1.83357 22.6598 1.80338 22.5192C1.79335 22.4892 1.77336 22.4389 1.76299 22.3887C1.72259 22.2181 1.73288 22.0172 1.6924 21.8466C1.68245 21.8064 1.66238 21.7764 1.652 21.7362C1.64197 21.6659 1.66212 21.5856 1.652 21.5254C1.64197 21.4752 1.61161 21.4251 1.60157 21.3748C1.58142 21.3146 1.58142 21.2543 1.57138 21.1841C1.55122 21.0633 1.50079 20.963 1.48072 20.8429C1.47068 20.8129 1.48072 20.7726 1.48072 20.7425C1.44032 20.4919 1.3597 20.2305 1.33954 19.9697C1.31947 19.9193 1.27908 19.8895 1.26896 19.829C1.25892 19.7687 1.28911 19.7084 1.27908 19.6486C1.27908 19.6386 1.24889 19.5981 1.23868 19.5683C1.19829 19.478 1.15806 19.4077 1.19829 19.287C1.13773 19.2266 1.15789 19.1463 1.14768 19.0761C1.13773 19.0258 1.09708 18.9759 1.07701 18.9255C1.05711 18.8652 1.05711 18.7949 1.03662 18.7347C0.99622 18.6243 0.925801 18.5236 0.915428 18.4035C0.895441 18.3834 0.875032 18.3734 0.864828 18.3432C0.874864 18.2829 0.834805 18.2428 0.864828 18.2026C0.824432 18.1826 0.784204 18.1521 0.79424 18.0718C0.703581 18.0216 0.673221 17.8915 0.582561 17.8311C0.572526 17.6705 0.43135 17.6506 0.421315 17.4899C0.310584 17.3996 0.179444 17.3494 0.18948 17.1787C-0.0423547 16.988 0.0382687 16.456 0.0583403 16.1046C0.158951 16.0343 0.129012 15.9242 0.199516 15.8336C0.260068 15.7532 0.360847 15.7128 0.441386 15.6529C0.531877 15.5826 0.62262 15.5427 0.683172 15.4621C0.814396 15.4321 0.914922 15.3719 1.03619 15.3314C1.09666 15.2312 1.19744 15.1808 1.27807 15.1005C1.3285 15.1305 1.38871 15.0905 1.42928 15.0707C1.71154 15.1913 1.96345 15.3314 2.30601 15.4017C2.38655 15.4721 2.46726 15.5423 2.57833 15.5723C2.64892 15.7029 2.75948 15.7832 2.8907 15.8435C2.92073 15.9537 3.03188 16.0138 3.10247 16.1247C3.13249 16.1849 3.18309 16.2753 3.22357 16.3656C3.30419 16.5361 3.32418 16.6866 3.38473 16.8876C3.44537 17.1085 3.55602 17.4799 3.51596 17.7608C3.50601 17.8611 3.41535 17.9817 3.50601 18.062C3.46561 18.1622 3.55644 18.4236 3.48593 18.5842C3.5464 18.6842 3.52633 18.8051 3.51596 18.9254C3.50601 19.1563 3.59658 19.3972 3.56656 19.5677C3.59658 19.5876 3.59658 19.6481 3.61699 19.6779C3.56656 19.7882 3.62702 19.8889 3.64718 19.9991C3.66725 20.1297 3.67712 20.2803 3.68758 20.4309C3.70765 20.5716 3.7483 20.7123 3.75816 20.8526C3.76828 20.9429 3.75816 21.0232 3.77824 21.0934C3.78827 21.1437 3.81863 21.1837 3.82884 21.2341C3.82884 21.2541 3.81889 21.2743 3.81889 21.2943C3.81889 21.2943 3.83879 21.3043 3.84882 21.3043C3.88922 21.3746 3.83879 21.4951 3.83879 21.5552C3.83879 21.5552 3.85886 21.5751 3.8689 21.5751C3.8689 21.5751 3.8689 21.6051 3.8689 21.6154C3.87902 21.6354 3.88905 21.6857 3.89909 21.7057C3.89909 21.7355 3.87902 21.7459 3.87902 21.766C3.87902 21.786 3.89909 21.8062 3.90895 21.8263C3.91899 21.8767 3.91899 21.9366 3.92903 21.9869C3.95922 22.2178 3.97963 22.4587 4.03976 22.6293C4.04971 22.6896 4.01968 22.7095 4.01968 22.7395C4.0702 22.8601 4.09027 23.0107 4.11043 23.1409C4.14037 23.2915 4.16086 23.4421 4.1709 23.5927C4.16086 23.643 4.24148 23.6027 4.22141 23.673C4.23136 23.7434 4.21146 23.8436 4.22141 23.9441C4.23136 24.0046 4.2721 24.0545 4.292 24.1248C4.30204 24.165 4.28196 24.2251 4.292 24.2654C4.30204 24.3256 4.34268 24.3757 4.36259 24.426C4.39269 24.5665 4.39269 24.7271 4.42331 24.8578C4.45325 25.0083 4.47374 25.2094 4.50393 25.3999C4.5644 25.7515 4.67496 26.0826 4.71561 26.434C4.75601 26.4639 4.76613 26.5042 4.7862 26.5442C4.83671 26.7048 4.86682 26.9456 4.90722 27.1164C4.92729 27.1766 4.9579 27.2266 4.9579 27.267C4.97789 27.3875 4.93775 27.5178 5.02849 27.6082C5.02849 27.6484 5.03853 27.6884 5.01845 27.7084C5.07892 27.7284 5.06889 27.8291 5.08896 27.8991C5.16958 27.9793 5.15955 28.13 5.19977 28.2506C5.21968 28.3209 5.26032 28.3812 5.2804 28.4515C5.33091 28.6321 5.35098 28.8031 5.40142 28.9737C5.45193 29.1343 5.50219 29.2849 5.55263 29.4255C5.44198 29.5861 5.55263 29.6966 5.59302 29.8573C5.60297 29.9075 5.60297 29.9575 5.62305 30.0078C5.63308 30.048 5.6836 30.0881 5.6836 30.1182C5.6836 30.1182 5.67365 30.148 5.67365 30.1685C5.69355 30.289 5.74423 30.3693 5.78429 30.4696C5.8144 30.5499 5.85488 30.6202 5.86492 30.7105C5.86492 30.7507 5.84476 30.7607 5.85488 30.8008C5.86492 30.911 5.92538 30.9812 5.96561 31.082C6.04623 31.2928 6.11691 31.5137 6.21743 31.7243C6.22738 31.3727 6.31804 31.0216 6.25783 30.7105C6.30826 30.7305 6.29822 30.66 6.29822 30.6502C6.32833 30.3291 6.2881 29.9874 6.24771 29.7367C6.33837 29.5356 6.28811 29.2045 6.27773 28.9133C6.25774 28.5618 6.25774 28.271 6.26786 27.9494C6.27773 27.6082 6.22747 27.2767 6.21718 26.9855C6.20706 26.7645 6.23717 26.5741 6.19719 26.3731C6.20706 26.3432 6.27773 26.3731 6.25774 26.3228C6.25774 26.1218 6.33837 25.9214 6.29814 25.7004C6.28802 25.6602 6.2682 25.6103 6.25774 25.5598C6.24771 25.4392 6.28768 25.309 6.28768 25.1684C6.2978 25.0076 6.28768 24.8372 6.27773 24.6562C6.25774 24.325 6.27773 23.9536 6.25774 23.6623C6.25774 23.602 6.22755 23.5521 6.22755 23.5018C6.22755 23.4514 6.24771 23.4015 6.24771 23.3511C6.24771 23.1906 6.20731 23.03 6.2176 22.9094C6.2176 22.859 6.24771 22.8091 6.258 22.7589C6.258 22.6382 6.17737 22.5179 6.23784 22.3873C6.10679 22.317 6.17737 22.1465 6.17737 22.0059C6.2074 21.5142 6.11691 20.8813 6.15722 20.4095C6.16734 20.3392 6.19761 20.269 6.16734 20.2086C6.19753 20.1184 6.23784 19.9877 6.18741 19.8875C6.2074 19.8473 6.258 19.8272 6.258 19.7668C6.26812 19.3954 6.30843 19.1042 6.32859 18.6523C6.33862 18.602 6.40921 18.602 6.38905 18.5217C6.46968 18.5217 6.48983 18.4614 6.58058 18.4414C6.7317 18.4115 6.90282 18.5118 7.04408 18.4315C7.13465 18.5118 7.2458 18.4215 7.33655 18.4414C7.42712 18.4614 7.44719 18.5622 7.50766 18.6322C7.61831 18.6521 7.69918 18.6925 7.81017 18.6925C7.94131 18.5822 8.18318 18.7224 8.13249 18.8934C7.99132 18.9538 7.95134 18.713 7.90066 18.8032C7.90066 18.9238 8.042 18.9837 8.07194 19.1343C8.08198 19.1847 8.07194 19.2346 8.07194 19.2949C8.08198 19.3351 8.14244 19.3248 8.15256 19.3652C8.15256 19.5257 8.31381 19.5661 8.24322 19.7466C8.27325 19.807 8.32385 19.8469 8.34383 19.9072C8.36391 19.9272 8.35387 19.9775 8.35387 20.0175C8.37386 20.0474 8.40456 20.0577 8.41451 20.0978C8.44445 20.2484 8.505 20.379 8.54565 20.5195C8.59616 20.6502 8.66675 20.7804 8.70689 20.911C8.72688 20.9813 8.73683 21.0516 8.75733 21.1219C8.78752 21.1922 8.83795 21.2526 8.828 21.3329C8.9992 21.5134 8.97921 21.8849 9.13033 22.0758C9.13033 22.1057 9.13033 22.1462 9.13033 22.1761C9.23103 22.2664 9.28155 22.4369 9.33223 22.5775C9.34227 22.6177 9.38266 22.6478 9.34227 22.6777C9.46329 22.7381 9.44271 22.9489 9.52342 23.0592C9.52342 23.0995 9.52342 23.1395 9.52342 23.1695C9.59392 23.2597 9.62411 23.3904 9.65464 23.521C9.65464 23.5813 9.73518 23.5613 9.73518 23.6213C9.8158 23.8522 9.9165 23.9828 9.88631 24.2137C9.93699 24.2336 9.93699 24.314 9.97705 24.3543C9.99712 24.4545 10.0174 24.5451 10.0476 24.6354C10.0778 24.7258 10.1181 24.8061 10.1584 24.8864C10.1883 24.9566 10.1988 25.0369 10.229 25.1173C10.2694 25.2275 10.3396 25.2979 10.35 25.4184C10.3601 25.4688 10.4406 25.4688 10.4507 25.5187C10.4608 25.6493 10.5614 25.6793 10.5213 25.82C10.5918 25.9002 10.622 26.0005 10.6624 26.1111C10.7232 26.2818 10.7531 26.5126 10.8643 26.6028C10.8239 26.6327 10.8643 26.6631 10.8743 26.6932C10.8943 26.7534 10.9043 26.8437 10.9147 26.8737C10.9247 26.8936 10.9449 26.8936 10.9551 26.914C10.9649 26.9542 10.9551 26.9943 10.9649 27.0446C11.0456 27.1449 11.0456 27.2755 11.0962 27.3857C11.1769 27.5765 11.2878 27.7473 11.358 27.9378C11.3781 27.9882 11.3781 28.0281 11.3984 28.0784C11.4084 28.0984 11.4183 28.0984 11.4284 28.1186C11.4383 28.1486 11.4183 28.1689 11.4284 28.199C11.4585 28.2792 11.5597 28.3495 11.5391 28.4597C11.6197 28.4999 11.6097 28.6004 11.6397 28.6707C11.6496 28.7109 11.6903 28.7211 11.7003 28.7609C11.7303 28.8313 11.7508 28.9214 11.781 28.9917C11.8109 29.0521 11.8615 29.102 11.8815 29.1523C11.9116 29.2128 11.9219 29.283 11.9522 29.3431C11.9822 29.3935 12.0327 29.4433 12.0528 29.5037C12.1233 29.6643 12.1939 29.7545 12.2645 29.8952C12.2946 29.9251 12.3753 29.8952 12.4057 29.9151C12.4461 29.9954 12.4157 30.0357 12.4863 30.0956C12.4157 29.955 12.4459 29.7745 12.4563 29.6438C12.4664 29.5535 12.4563 29.453 12.4362 29.3725C12.4262 29.3222 12.3958 29.2922 12.3857 29.2319C12.3555 29.0814 12.4057 28.9308 12.3152 28.8304C12.3352 28.8105 12.3452 28.7802 12.3352 28.7302C12.3152 28.69 12.2948 28.6599 12.2846 28.62C12.325 28.5798 12.2746 28.5297 12.2746 28.4694C12.2545 28.3388 12.2645 28.1982 12.204 28.1383C12.2545 28.0679 12.204 28.0281 12.1839 27.9374C12.1739 27.877 12.1839 27.8067 12.1839 27.7467C12.1639 27.5158 12.0427 27.295 12.0628 27.054C12.0528 27.0241 12.0327 27.0037 12.0224 26.9638C11.982 26.8232 11.982 26.6626 11.9517 26.512C11.9113 26.2911 11.8811 26.0502 11.8511 25.8996C11.8311 25.8193 11.8311 25.7191 11.7805 25.6488C11.7805 25.5984 11.8005 25.5685 11.7906 25.5082C11.7805 25.4578 11.74 25.4478 11.74 25.3979C11.75 25.3077 11.7299 25.3276 11.7099 25.2673C11.74 25.0967 11.6593 24.9561 11.6493 24.8154C11.6493 24.7752 11.6694 24.7352 11.6694 24.7052C11.6694 24.6853 11.6493 24.6349 11.6394 24.615C11.6193 24.4743 11.6193 24.4344 11.5587 24.3542C11.5991 24.1936 11.5888 23.9324 11.5081 23.7717C11.5081 23.7517 11.5587 23.7617 11.5485 23.7213C11.478 23.7413 11.5185 23.661 11.5185 23.6311C11.5485 23.6111 11.468 23.5908 11.4781 23.5408C11.5185 23.3501 11.4681 23.1593 11.4581 22.9284C11.438 22.6372 11.448 22.346 11.3775 22.1253C11.3674 22.065 11.4179 22.0851 11.4179 22.035C11.3573 22.025 11.398 21.9448 11.388 21.9348C11.3779 21.7139 11.3578 21.473 11.3374 21.3125C11.3172 21.152 11.3573 21.0112 11.3474 20.8507C11.3374 20.7803 11.307 20.73 11.2969 20.6599C11.2969 20.6399 11.3169 20.6399 11.3269 20.6299C11.3369 20.61 11.3169 20.5896 11.3169 20.5796C11.3069 20.5394 11.2969 20.5093 11.2868 20.4793C11.2464 20.1078 11.3069 19.5857 11.2263 19.2447C11.2768 19.1344 11.2263 19.0437 11.2263 18.9534C11.2061 18.7026 11.2263 18.4114 11.1962 18.1302C11.1861 18.0499 11.1662 17.9696 11.1558 17.8893C11.1458 17.7891 11.1758 17.6883 11.1658 17.5881C11.1658 17.5377 11.1356 17.4879 11.1254 17.4375C11.0955 17.2167 11.1658 16.9858 11.1155 16.7648C11.2162 16.6043 11.186 16.4337 11.1661 16.2328C11.1359 15.771 11.0955 15.3092 11.0955 14.8375C11.0955 14.6769 11.0654 14.486 11.0855 14.3458C11.0855 14.3159 11.0855 14.2855 11.1259 14.2556C11.1059 14.2455 11.0754 14.2455 11.0855 14.2052C11.156 14.0346 11.0855 13.8337 11.1054 13.6331C11.1054 13.5828 11.1355 13.5529 11.1254 13.5025C11.1254 13.3818 11.1054 13.0911 11.1155 12.9101C11.1155 12.7795 11.1661 12.6493 11.1559 12.5286C11.1559 12.398 11.1257 12.2977 11.1458 12.1875C11.1559 12.1372 11.1862 12.0972 11.1964 12.0468C11.2063 11.9366 11.1664 11.8359 11.2063 11.7257C11.2569 11.6958 11.3071 11.7761 11.3071 11.7257C11.2869 11.6155 11.3371 11.5048 11.3371 11.3946C11.3371 11.3442 11.317 11.2943 11.3271 11.244C11.3371 11.1936 11.3777 11.1637 11.3777 11.1133C11.317 11.0031 11.3777 10.9024 11.3877 10.8221C11.3877 10.7518 11.3371 10.6815 11.3877 10.6314C11.1983 10.5943 10.9967 10.6043 10.9564 10.4437Z"></path>
<path fill="#1A1A1A" d="M17.5786 21.6571C17.6088 21.7176 17.6294 21.7879 17.7197 21.7778C17.71 21.828 17.7197 21.8581 17.7806 21.8481C17.7806 21.8983 17.8105 21.9583 17.7503 21.9583C17.7907 22.0287 17.8109 22.109 17.8815 22.149C17.8815 22.2795 17.9016 22.4 17.9322 22.5004C17.9121 22.5406 17.9726 22.5104 17.9621 22.5305C17.9522 22.5907 17.9721 22.6308 17.9721 22.6911C18.0125 22.6911 18.0326 22.7814 18.0729 22.8116C18.0729 22.8316 18.083 22.8722 18.0528 22.8518C18.0528 22.8815 18.0932 22.8719 18.1233 22.8719C18.1233 22.9221 18.1132 22.9821 18.184 22.9618C18.164 23.0124 18.1741 23.0927 18.1741 23.163C18.184 23.1827 18.2144 23.1329 18.2547 23.163C18.3052 23.2835 18.1741 23.3939 18.2446 23.5042C18.2346 23.5243 18.2144 23.5342 18.2042 23.5547C18.2042 23.5745 18.2446 23.6447 18.1842 23.635C18.2449 23.7953 18.1438 23.9459 18.1542 24.1267C18.1542 24.1568 18.2046 24.1468 18.2147 24.187C18.2248 24.3982 18.1744 24.5487 18.124 24.6892C18.124 24.7494 18.1947 24.7293 18.2046 24.7795C18.1341 24.8398 18.1847 25.0301 18.094 25.0807C18.094 25.2413 18.0134 25.3216 18.0134 25.4722C18.0033 25.5019 17.9528 25.5722 17.9327 25.6228C17.9226 25.6525 17.9226 25.683 17.9126 25.713C17.8925 25.7633 17.9428 25.8436 17.8827 25.8934C17.9126 26.034 17.802 26.1243 17.802 26.2649C17.7718 26.285 17.782 26.3452 17.7513 26.3653C17.7614 26.4055 17.812 26.3452 17.812 26.3753C17.832 26.4656 17.812 26.5459 17.7513 26.5861C17.7314 26.7871 17.5802 26.8471 17.5597 27.0379C17.4489 27.0883 17.4489 27.239 17.3479 27.2989C17.3679 27.3185 17.3679 27.3089 17.3578 27.339C17.3073 27.3994 17.2267 27.4796 17.1461 27.5402C17.0856 27.5904 17.0354 27.6607 16.9748 27.7007C16.9344 27.7305 16.8437 27.761 16.7732 27.7908C16.7127 27.8209 16.6421 27.8711 16.5918 27.8911C16.5313 27.9213 16.4707 27.9313 16.4107 27.9715C16.4107 28.0216 16.4206 28.0919 16.4007 28.1321C16.3805 28.1321 16.3603 28.1321 16.3401 28.1321C16.32 28.122 16.3099 28.0618 16.2793 28.0317C16.1083 28.1321 15.8258 28.1321 15.6546 28.2328C15.7253 28.4537 15.6645 28.6846 15.7552 28.8954C15.7352 28.9356 15.7047 28.9657 15.6846 29.0056C15.7148 29.2168 15.7854 29.3871 15.7854 29.5677C15.8358 29.638 15.8458 29.7585 15.866 29.8588C15.866 29.8689 15.886 29.8689 15.8958 29.8689C15.916 29.9693 15.9466 30.0699 16.0171 30.1299C16.0977 30.3608 16.2187 30.5515 16.3094 30.7721C16.4808 30.9628 16.6219 31.1836 16.7529 31.4145C16.9243 31.4848 17.0149 31.6153 17.2066 31.6651C17.2066 31.6852 17.2066 31.7053 17.2066 31.7257C17.3072 31.7555 17.3478 31.8462 17.4686 31.8462C17.5089 31.8261 17.4786 31.8864 17.4984 31.8763C17.7707 31.8864 17.9721 31.836 18.1538 31.7555C18.1838 31.7957 18.2244 31.7357 18.2849 31.7153C18.3554 31.6952 18.4562 31.7153 18.4967 31.7053C18.5167 31.6952 18.5167 31.665 18.5267 31.645C18.6578 31.6047 18.7586 31.6647 18.8291 31.5747C18.9904 31.3736 19.061 30.9323 19.2526 30.7716C19.2624 30.7417 19.2526 30.7515 19.2624 30.7113C19.2824 30.7013 19.2926 30.6812 19.3331 30.6812C19.3232 30.6515 19.353 30.6515 19.343 30.6109C19.4643 30.5912 19.5042 30.4503 19.5849 30.3901C19.6356 30.3603 19.7162 30.3399 19.7162 30.2495C19.7566 30.2295 19.8066 30.2194 19.7966 30.1592C19.8674 30.1592 19.8674 30.0789 19.9279 30.0688C19.9179 29.9885 19.9784 29.9788 20.0086 29.9283C20.059 29.9283 20.0991 29.9183 20.109 29.9584C20.1494 29.9383 20.1494 29.8881 20.1896 29.8781C20.2602 29.9078 20.2904 29.9781 20.3004 30.0584C20.2498 30.1792 20.1693 30.2893 20.1493 30.4399C20.1392 30.4801 20.1997 30.4499 20.1997 30.4801C20.1896 30.5504 20.1896 30.5604 20.1796 30.6007C20.1698 30.6307 20.2304 30.591 20.2304 30.6207C20.19 30.7513 20.2304 30.9019 20.1296 30.9724C20.1396 31.203 20.0086 31.3836 19.9483 31.5845C19.9887 31.6145 20.059 31.5845 20.0996 31.5748C20.1195 31.7354 19.9989 31.7656 19.9081 31.8254C19.9081 31.9462 19.8073 31.9661 19.7975 32.0763C19.7876 32.0863 19.7674 32.0863 19.7571 32.0863C19.747 32.1965 19.6563 32.2169 19.6463 32.3273C19.5658 32.3675 19.5252 32.4478 19.4345 32.4778C19.4245 32.5181 19.4145 32.5481 19.4046 32.5779C19.3744 32.568 19.3642 32.588 19.334 32.588C19.3039 32.6079 19.2732 32.6282 19.2634 32.6782C19.2333 32.6782 19.2128 32.7083 19.1828 32.7083C19.1322 32.7381 19.1122 32.7886 19.0616 32.8185C18.991 32.8687 18.8803 32.8787 18.8398 32.959C18.7793 32.9491 18.7591 32.9791 18.739 33.0096C18.6386 33.0096 18.568 33.0799 18.4772 33.1096C18.4264 33.1297 18.3664 33.1297 18.3059 33.1499C18.2555 33.16 18.2052 33.2001 18.1749 33.2102C18.0536 33.2302 17.8624 33.2302 17.7514 33.2202C17.7315 33.2202 17.6808 33.2403 17.6808 33.2001C17.6707 33.2001 17.6707 33.2202 17.6609 33.2202C17.5802 33.1699 17.4191 33.2102 17.3583 33.1499C17.3078 33.1499 17.2579 33.1499 17.1972 33.1499C17.0761 33.0696 16.9148 33.0395 16.8042 32.9488C16.7638 32.9389 16.7741 32.8885 16.7136 32.9086C16.6833 32.9186 16.7435 32.9286 16.7237 32.9688C16.5321 32.9789 16.4411 32.8383 16.3002 32.8183C16.2802 32.748 16.2296 32.7279 16.159 32.7081C16.0484 32.5274 15.8567 32.4368 15.7559 32.2463C15.736 32.2263 15.7155 32.2162 15.6955 32.206C15.6853 32.1763 15.6754 32.1458 15.6653 32.1157C15.6555 32.096 15.6454 32.0755 15.6047 32.0859C15.6047 32.0157 15.5749 31.9855 15.5341 31.9651C15.4737 31.8346 15.4132 31.694 15.3326 31.5836C15.3224 31.4631 15.2922 31.3627 15.2418 31.2925C15.2014 31.1519 15.2014 30.9813 15.1312 30.8708C15.0705 30.6697 15.0306 30.4388 14.9898 30.2181C14.98 30.1478 14.97 30.0775 14.9495 30.0173C14.9395 29.9872 14.9193 29.9569 14.9193 29.9269C14.9092 29.8867 14.9193 29.8466 14.9193 29.8062C14.9193 29.766 14.8895 29.736 14.8789 29.696C14.8588 29.5858 14.8789 29.4651 14.8588 29.3446C14.8487 29.3044 14.8288 29.2742 14.8184 29.2342C14.7984 29.124 14.8282 28.9933 14.8085 28.8728C14.7984 28.8223 14.7782 28.7825 14.7681 28.7421C14.7681 28.7223 14.7883 28.7019 14.7883 28.6718C14.7883 28.5916 14.7277 28.5112 14.7883 28.4508C14.7681 28.2601 14.7377 27.8585 14.7377 27.6276C14.7377 27.6176 14.7577 27.5874 14.7577 27.5674C14.7577 27.5473 14.7377 27.5272 14.7377 27.5071C14.7377 27.4466 14.7577 27.3967 14.7577 27.3365C14.7577 27.3064 14.7377 27.2662 14.7377 27.2361C14.7377 27.1658 14.7883 27.1056 14.7475 27.0454C14.7577 27.0354 14.7677 27.0254 14.7777 27.0154C14.7577 26.8848 14.8079 26.7546 14.7979 26.6439C14.7879 26.5836 14.7372 26.5133 14.8079 26.4632C14.8178 26.393 14.8079 26.3227 14.8178 26.2625C14.8178 26.2424 14.8379 26.2424 14.8379 26.2324C14.8479 26.1822 14.8379 26.1222 14.8479 26.0619C14.8579 26.0115 14.8781 25.9717 14.8781 25.9312C14.888 25.8409 14.8579 25.7508 14.9185 25.7103C14.9185 25.62 14.9185 25.5298 14.9386 25.4392C14.9487 25.3887 14.979 25.3489 14.979 25.3084C14.989 25.2682 14.979 25.2282 14.979 25.1983C14.989 25.0676 15.0596 24.9573 15.0596 24.8266C15.0495 24.8067 15.0797 24.8067 15.0898 24.8067C15.0797 24.5858 15.2208 24.455 15.1904 24.2546C15.2511 24.124 15.3116 23.9734 15.3416 23.7928C15.3515 23.7425 15.4123 23.7225 15.382 23.6722C15.4726 23.6118 15.4525 23.4513 15.5331 23.3809C15.5634 23.2204 15.6239 23.0897 15.7045 22.9696C15.7045 22.7889 15.8456 22.7287 15.8456 22.5377C15.8657 22.5377 15.8758 22.5377 15.886 22.5377C15.8661 22.4674 15.9264 22.4275 15.9467 22.3772C15.9568 22.3572 15.9467 22.3168 15.9568 22.2968C15.9765 22.2566 16.0273 22.2266 16.0471 22.1866C16.0572 22.1463 16.0572 22.1163 16.0673 22.0764C16.0874 22.0764 16.1077 22.0764 16.1278 22.0764C16.1785 21.9661 16.289 21.9158 16.2991 21.7751C16.3395 21.795 16.3596 21.7452 16.3999 21.7348C16.4298 21.7348 16.4099 21.7751 16.4402 21.7648C16.6015 21.7143 16.6822 21.5741 16.9341 21.6142C16.9039 21.5942 16.8635 21.5842 16.8128 21.5842C16.8128 21.544 16.793 21.524 16.8027 21.4839C16.793 21.464 16.7422 21.4839 16.7321 21.4541C16.7321 21.4441 16.7321 21.4241 16.7321 21.4139C16.7422 21.4139 16.7422 21.404 16.7522 21.404C16.8733 21.404 17.0345 21.404 17.0949 21.4745C17.2659 21.4842 17.3772 21.5645 17.4578 21.6753C17.5182 21.6571 17.5484 21.6571 17.5786 21.6571ZM16.3993 21.9381C16.3993 21.918 16.4292 21.918 16.4292 21.8875C16.3993 21.888 16.369 21.918 16.3993 21.9381ZM16.742 23.1027C16.7319 23.1826 16.6314 23.2129 16.6614 23.2934C16.621 23.3135 16.5908 23.3336 16.561 23.3637C16.5707 23.444 16.5308 23.444 16.5308 23.5343C16.5207 23.5444 16.5106 23.5641 16.4904 23.5641C16.4904 23.6848 16.3796 23.705 16.3896 23.8353C16.3695 23.8554 16.3492 23.8855 16.3594 23.9455C16.3494 23.9556 16.3191 23.9455 16.3296 23.9756C16.3296 24.0056 16.3296 24.0459 16.3296 24.0759C16.2788 24.0558 16.2994 24.1262 16.2994 24.1562C16.2893 24.176 16.2489 24.1562 16.259 24.186C16.2288 24.3067 16.2288 24.4069 16.1982 24.5172C16.1883 24.5575 16.1477 24.5775 16.1477 24.6174C16.1377 24.6577 16.1477 24.7176 16.1477 24.7176C16.1276 24.818 16.0873 24.8983 16.1073 24.9889C16.0268 25.0492 16.0772 25.2298 16.0669 25.3604C15.9964 25.4909 15.9762 25.6515 15.9762 25.8422C15.9964 25.8522 16.0368 25.8322 16.0368 25.8522C16.027 25.9324 15.9863 25.9828 15.9964 26.073C15.9863 26.073 15.9662 26.073 15.956 26.073C15.9862 26.1633 15.8954 26.2739 15.956 26.3743C15.9862 26.3941 16.0168 26.3237 16.0466 26.3039C16.0974 26.294 16.1172 26.2434 16.1574 26.2236C16.1676 26.1834 16.1874 26.1731 16.1874 26.1334C16.1974 26.1334 16.2176 26.1334 16.2278 26.1334C16.3488 25.9426 16.4696 25.7619 16.5806 25.5712C16.6314 25.3704 16.7419 25.2402 16.7721 25.0291C16.802 25.0191 16.8125 24.9889 16.8528 24.9789C16.8528 24.8986 16.9234 24.8785 16.8932 24.7982C16.9439 24.748 16.9536 24.698 16.9536 24.6179C16.9536 24.5978 16.9738 24.5978 16.9838 24.5573C16.9939 24.5376 16.9838 24.5171 16.9838 24.497C17.004 24.487 17.014 24.4672 17.0242 24.4468C17.0141 24.3565 17.0541 24.326 17.0747 24.2762C17.0645 24.1356 17.1553 24.1055 17.1251 23.9449C17.1956 23.8947 17.1655 23.7646 17.1655 23.6538C17.1655 23.6437 17.1853 23.624 17.1853 23.6135C17.1853 23.5531 17.1655 23.5935 17.1853 23.5433C17.2155 23.4728 17.1755 23.3826 17.2055 23.3023C17.1651 23.2321 17.0844 23.192 17.0244 23.1518C16.9536 23.1518 16.8732 23.1618 16.8224 23.1417C16.8123 23.1117 16.8324 23.1015 16.8324 23.0714C16.8025 23.1127 16.7823 23.1027 16.742 23.1027ZM16.2683 32.6898C16.359 32.7097 16.4296 32.8203 16.5202 32.8001C16.4096 32.7496 16.349 32.6495 16.2279 32.6094C16.2279 32.5491 16.1272 32.5291 16.1171 32.5191C16.1574 32.5796 16.2481 32.6395 16.2683 32.6898ZM16.621 32.8705C16.6009 32.8504 16.5404 32.8199 16.5304 32.8303C16.5606 32.8303 16.5808 32.9106 16.621 32.8705Z"></path>
<path fill="#1A1A1A" d="M30.8936 49.7257C30.8328 49.7257 30.7828 49.7257 30.7223 49.7257V49.7156C30.6417 49.6052 30.6114 49.4044 30.5711 49.2338C30.5307 49.0932 30.4603 48.9627 30.4199 48.8226C30.3691 48.6619 30.3392 48.4813 30.2885 48.3102C30.1981 48.3005 30.1474 48.25 30.1174 48.1797C30.0469 48.1394 29.9259 48.1394 29.8756 48.0391C29.8454 47.9788 29.8554 47.8585 29.8352 47.758C29.7948 47.517 29.694 47.2059 29.6641 47.0353C29.6237 46.965 29.5533 47.0653 29.5129 47.0252C29.2909 46.453 29.2406 45.6699 29.1703 44.8969C29.13 44.4653 29.0897 44.0337 29.0292 43.632C29.009 43.5216 28.9284 43.3911 28.8981 43.2803C28.878 43.1803 28.8981 43.0896 28.8679 42.9992C28.8478 42.9089 28.7772 42.8386 28.757 42.7482C28.6966 42.5174 28.6966 42.2865 28.6464 42.0757C28.606 41.915 28.5557 41.7745 28.5356 41.5938C28.5356 41.5536 28.576 41.4733 28.5057 41.4533C28.4956 41.403 28.5158 41.3729 28.5356 41.3431C28.455 41.3028 28.4952 41.1825 28.475 41.0922C28.455 41.0119 28.4146 40.9416 28.3944 40.8713C28.344 40.7107 28.3138 40.54 28.2634 40.3794C28.1626 40.0586 28.0718 39.7474 27.9106 39.496C27.9106 39.4357 27.961 39.3752 27.9404 39.3454C27.8699 39.2949 27.9 39.2148 27.88 39.1443C27.8598 39.084 27.8295 39.0238 27.8094 38.9639C27.7086 38.5524 27.6582 38.1206 27.5876 37.6988C27.5574 37.5582 27.5268 37.4177 27.507 37.2771C27.4868 37.1466 27.4868 37.0161 27.4666 36.8856C27.4467 36.7451 27.406 36.6146 27.3859 36.474C27.3661 36.3436 27.3154 36.2133 27.2855 36.0829C27.2653 35.9826 27.2754 35.8717 27.2553 35.7717C27.2352 35.6509 27.1646 35.5409 27.1545 35.42C27.1446 35.3397 27.1746 35.2496 27.1646 35.1694C27.1545 35.059 27.0839 34.9184 27.0641 34.7879C27.0339 34.6273 27.074 34.4466 27.0033 34.336C26.9935 34.3161 26.9227 34.3161 26.9629 34.2756C27.0033 34.0848 26.9122 33.8643 26.8924 33.7137C26.8723 33.6034 26.8823 33.4728 26.8621 33.3725C26.8521 33.3122 26.7815 33.2519 26.7815 33.2018C26.7715 33.1316 26.8422 33.1316 26.8219 33.0613C26.4994 33.2319 26.2877 33.5331 26.0256 33.7945C25.9047 33.915 25.7738 34.0451 25.6427 34.176C25.4713 34.3462 25.3402 34.5374 25.0785 34.5976C24.9878 34.7482 24.8062 34.8085 24.6954 34.9389C24.5343 34.9891 24.3529 35.0895 24.171 35.1598C24.1206 35.1797 24.05 35.22 24.0001 35.23C23.9194 35.2401 23.8388 35.22 23.7581 35.23C23.6675 35.2501 23.5869 35.3104 23.5062 35.3303C23.3852 35.3501 23.0728 35.3501 22.942 35.3303C22.8813 35.3204 22.8413 35.2698 22.7907 35.2598C22.72 35.2401 22.6394 35.2598 22.5789 35.2501C22.4277 35.22 22.2866 35.0993 22.1253 35.1092C22.0648 35.049 22.0346 34.9686 21.9842 34.8984C21.9337 34.8381 21.8834 34.7882 21.8431 34.6976C21.7923 34.5668 21.7725 34.4064 21.7625 34.2458C21.7423 34.0852 21.7725 33.9146 21.7019 33.764C21.7019 33.7439 21.7019 33.7237 21.7019 33.7037C21.7318 33.513 21.8934 33.4025 21.8531 33.1914C21.8935 33.1511 21.9638 33.1211 21.9237 33.0408C21.9741 32.9905 22.0548 32.9607 22.0343 32.8399C22.2363 32.7094 22.3875 32.5287 22.498 32.3079C22.7 32.2176 22.8205 32.0368 22.9516 31.8662C23.0322 31.8461 23.083 31.7959 23.1229 31.7256C23.1834 31.6854 23.2441 31.6353 23.2741 31.5751C23.4759 31.5348 23.5664 31.3843 23.6976 31.2835C23.9093 31.1133 24.1612 30.9924 24.3528 30.8021C24.4536 30.7017 24.5342 30.6113 24.635 30.5206C25.0483 30.1692 25.4718 29.838 25.8143 29.4466C25.7739 29.3862 25.7841 29.3059 25.7739 29.2356C25.7539 29.075 25.7233 28.9047 25.6934 28.7541C25.6733 28.6836 25.6326 28.5935 25.6226 28.533C25.6127 28.4627 25.6427 28.3924 25.6326 28.3221C25.6226 28.2119 25.5519 28.1013 25.5321 28.0009C25.4917 27.8001 25.4917 27.5996 25.4515 27.3986C25.3908 27.0974 25.3302 26.7962 25.2802 26.515C25.26 26.4247 25.26 26.3344 25.2501 26.2438L25.2201 26.2342C25.2201 26.2241 25.2401 26.2141 25.2302 26.204C25.21 26.0234 25.1394 25.8526 25.1594 25.682C25.0689 25.5716 25.1088 25.421 25.0789 25.2704C25.0183 25.0195 24.9576 24.7584 24.9377 24.4974C24.9177 24.4676 24.857 24.4774 24.8671 24.4272C24.857 24.0357 24.6755 23.7144 24.6959 23.3831C24.6759 23.353 24.6657 23.3326 24.6253 23.2828C24.5747 23.0619 24.5849 22.7507 24.4741 22.6301C24.5247 22.4893 24.4541 22.3793 24.4133 22.2387C24.3529 21.9777 24.3027 21.7066 24.2622 21.4457C24.2522 21.3954 24.2017 21.3954 24.1916 21.3453C24.121 21.1244 24.091 20.8738 24.0505 20.6226C24.0203 20.4419 23.9293 20.2512 23.8993 20.0906C23.8792 20.0203 23.8892 19.95 23.8692 19.8797C23.8592 19.8291 23.8187 19.7894 23.8086 19.7389C23.7985 19.6987 23.8187 19.6588 23.8086 19.6083C23.7885 19.5179 23.7481 19.4477 23.7279 19.3574C23.708 19.2674 23.6775 19.1667 23.6574 19.0762C23.617 18.8957 23.6069 18.6948 23.5568 18.5241C23.5468 18.484 23.5062 18.4341 23.4862 18.3836C23.4155 18.1928 23.3449 17.9318 23.355 17.721C23.1938 17.5804 23.355 17.1086 23.1837 16.958C23.1938 16.8373 23.1132 16.7371 23.0832 16.6368C23.053 16.5266 23.053 16.4159 23.0428 16.3156C23.0129 16.0445 22.8616 15.7835 22.8412 15.4424C22.7606 15.3821 22.811 15.2818 22.7806 15.2015C22.7706 15.1512 22.7199 15.1212 22.71 15.0709C22.7001 15.0307 22.71 14.9706 22.7001 14.9203C22.6799 14.8598 22.6393 14.82 22.6293 14.7697C22.6195 14.6994 22.6293 14.6091 22.6393 14.5288C22.5587 14.4783 22.5688 14.3482 22.5688 14.2176C22.4981 14.1876 22.5388 14.1173 22.4682 14.0771C22.4981 13.9164 22.4381 13.7957 22.4074 13.6856C22.3876 13.6153 22.3975 13.535 22.3775 13.4747C22.3573 13.4142 22.317 13.3644 22.307 13.3041C22.2969 13.2439 22.317 13.1734 22.307 13.103C22.2868 12.8422 22.1758 12.5909 22.2364 12.2998C22.0344 12.0988 22.1457 11.5871 22.0344 11.2859C22.1452 11.1454 22.0344 10.8747 22.0246 10.6836C21.9945 10.6233 22.0852 10.6635 22.065 10.6133C22.0549 10.5832 22.0349 10.5631 22.0349 10.5129C22.1255 10.423 22.065 10.2921 22.0753 10.1717C22.0853 10.1115 22.1257 10.0312 22.1357 9.96092C22.1559 9.83006 22.1357 9.69995 22.1458 9.57942C22.1559 9.45863 22.2163 9.38867 22.2564 9.28796C22.3171 9.11762 22.3671 8.98676 22.4582 8.87672C22.4683 8.70613 22.5086 8.56553 22.6394 8.51513C22.7606 8.52504 22.8712 8.5053 22.9819 8.51513C23.1632 8.53504 23.3045 8.64583 23.4255 8.62533C23.4356 8.7257 23.496 8.76594 23.5061 8.86631C23.6472 8.92653 23.6472 9.06706 23.7179 9.1875C23.748 9.24773 23.8186 9.28754 23.8492 9.3381C23.9097 9.46863 23.9396 9.63931 23.9599 9.7999C23.9599 9.86013 24.0405 9.82964 24.0305 9.89994C24.0006 10.0605 24.101 10.2111 24.0911 10.4122C24.1617 10.5123 24.1417 10.653 24.1716 10.7736C24.1817 10.8139 24.2223 10.864 24.2324 10.9142C24.2523 11.0245 24.2324 11.1551 24.2423 11.2657C24.2523 11.3262 24.2827 11.3865 24.3029 11.4463C24.3329 11.6169 24.3029 11.7575 24.3836 11.8378C24.3129 11.9784 24.424 12.129 24.3935 12.3196C24.4441 12.3394 24.4541 12.3699 24.4741 12.4197C24.5547 12.6003 24.5447 12.8815 24.5848 13.1123C24.706 13.1826 24.6654 13.4536 24.6954 13.5541C24.7055 13.5842 24.7358 13.5943 24.7358 13.6245C24.7659 13.795 24.756 13.9657 24.8366 14.1162C24.7758 14.2768 24.8769 14.3371 24.9071 14.4375C24.937 14.5579 24.9071 14.6683 24.9172 14.829C24.9471 14.8691 24.9878 14.8992 24.9977 14.9595C25.0177 14.9997 24.9977 15.0599 25.0076 15.11C25.0177 15.1602 25.0684 15.2004 25.0783 15.2506C25.0983 15.3209 25.0883 15.4112 25.1083 15.4915C25.1285 15.5718 25.1588 15.6521 25.1487 15.7324C25.2999 15.873 25.2193 16.1641 25.2799 16.3548C25.3203 16.4954 25.4109 16.6155 25.4511 16.766C25.4915 16.9166 25.4811 17.0873 25.5217 17.2479C25.5621 17.3985 25.6729 17.539 25.6223 17.7097C25.6829 17.7599 25.6929 17.8301 25.6829 17.9305C25.804 18.051 25.7634 18.3321 25.864 18.4626C25.864 18.5128 25.8237 18.5228 25.8341 18.5931C25.9247 18.6834 25.8947 18.814 25.9147 18.9448C25.9346 19.0251 25.9854 19.0954 26.0153 19.1856C26.0758 19.3866 26.0455 19.6074 26.1564 19.7177C26.116 19.8279 26.2172 19.8384 26.1665 19.9387C26.2773 19.989 26.2271 20.1696 26.2371 20.3002C26.2571 20.541 26.3983 20.7619 26.3783 21.0228C26.3379 21.0427 26.4289 21.0527 26.4187 21.0931C26.4187 21.1435 26.3783 21.1435 26.3885 21.2033C26.4892 21.324 26.5698 21.4745 26.5397 21.7254C26.4993 21.7554 26.6304 21.7254 26.6005 21.7858C26.5601 21.9868 26.6811 22.1269 26.7009 22.298C26.711 22.3582 26.6909 22.4285 26.7009 22.4987C26.711 22.5491 26.7413 22.5891 26.7413 22.6393C26.7512 22.6899 26.7313 22.7601 26.7413 22.8099C26.7512 22.8702 26.8119 22.9203 26.8219 22.9806C26.8623 23.1211 26.8418 23.2717 26.9224 23.392C26.882 23.4119 26.9126 23.4623 26.9126 23.5022C26.9126 23.5321 26.9025 23.5925 26.9126 23.6124C26.9224 23.6728 26.9731 23.7431 26.993 23.8134C27.0437 23.9939 27.0334 24.2049 27.1442 24.3354C27.0637 24.4258 27.1743 24.5261 27.1846 24.6165C27.1946 24.6671 27.0938 24.6366 27.1442 24.687C27.2755 25.0785 27.2654 25.6007 27.4368 25.9417C27.376 26.1324 27.4368 26.273 27.5173 26.3935C27.5173 26.4337 27.4368 26.4236 27.4769 26.464C27.5677 26.5947 27.5877 26.775 27.6181 26.9557C27.6483 27.1361 27.6887 27.2769 27.6987 27.4474C27.8499 27.4572 27.9506 27.4275 28.0817 27.4174C28.1926 27.2669 28.4143 27.2669 28.5756 27.1765C28.7066 27.1062 28.8174 26.9657 28.9686 26.9557C29.1198 26.785 29.291 26.6445 29.5227 26.5441C29.6541 26.4035 29.7847 26.273 29.9665 26.1927C29.9964 26.1827 29.9665 26.1124 30.0069 26.1124C30.1984 26.0321 30.3899 25.8815 30.4907 25.7609C30.4101 25.8112 30.3093 25.9313 30.2082 25.9114C30.4101 25.8012 30.6012 25.6506 30.793 25.52C30.9947 25.3794 31.1862 25.2488 31.3777 25.1386C31.4383 25.0178 31.6096 24.9778 31.7308 24.8976C31.7914 24.8574 31.8519 24.7973 31.9119 24.757C32.1238 24.6162 32.3556 24.5161 32.5167 24.3456C32.6982 24.3053 32.7993 24.1849 32.9605 24.1247C32.9098 23.9038 32.9201 23.5525 32.8898 23.4019C32.8598 23.2814 32.8494 23.171 32.8191 23.0505C32.9704 22.8699 32.7386 22.4984 32.8093 22.3074C32.8699 22.147 32.688 21.9864 32.8093 21.8456C32.688 21.6549 32.7792 21.2531 32.678 21.0425C32.6679 20.9723 32.7184 20.9723 32.7184 20.912C32.6176 20.7414 32.6882 20.5405 32.6578 20.3599C32.6479 20.2896 32.6072 20.2293 32.5971 20.159C32.5673 19.9683 32.6072 19.7776 32.587 19.5765C32.5772 19.5062 32.5467 19.4459 32.5467 19.3756C32.5366 19.2449 32.5567 19.1746 32.5366 19.0845C32.5265 19.0241 32.4962 18.9741 32.4962 18.9138C32.4861 18.7932 32.5161 18.6629 32.4962 18.5424C32.4861 18.442 32.4055 18.3517 32.4558 18.2511C32.3348 18.1304 32.4258 17.9099 32.3953 17.719C32.3752 17.5785 32.2945 17.4582 32.3348 17.3375C32.2542 17.2474 32.3046 17.0264 32.2239 16.9462C32.2745 16.9561 32.2643 16.8956 32.2845 16.8759C32.1738 16.7252 32.2646 16.5144 32.2239 16.3238C32.2039 16.2435 32.1333 16.1733 32.1232 16.103C32.1034 15.9926 32.1232 15.902 32.1534 15.8217C32.0527 15.8217 32.1333 15.6309 32.0527 15.6107C32.0828 15.5808 32.1134 15.5705 32.1134 15.5105C32.0328 15.2796 32.0127 15.0084 31.9621 14.7878C31.9421 14.7175 31.9014 14.6372 31.8916 14.567C31.8815 14.5066 31.8916 14.4264 31.8916 14.366C31.8716 14.155 31.801 13.9646 31.8208 13.7438C31.7102 13.6031 31.8208 13.2316 31.6796 13.1214C31.6796 13.0811 31.7603 13.0913 31.72 13.0511C31.6193 12.9005 31.6796 12.5993 31.5887 12.4487C31.6493 12.4084 31.5987 12.3484 31.5887 12.2781C31.72 11.9669 31.4374 11.6857 31.5181 11.3345C31.4882 11.3047 31.4374 11.2842 31.4374 11.2243C31.5282 11.0936 31.4076 10.8328 31.5081 10.7021C31.3166 10.6721 31.4782 10.4309 31.4782 10.2803C31.4782 10.1901 31.4275 10.0896 31.4175 9.98922C31.3874 9.62771 31.4579 9.24621 31.347 8.98533C31.337 8.9351 31.3975 8.95543 31.3873 8.90503C31.3168 8.88521 31.347 8.79483 31.347 8.73452C31.347 8.67421 31.337 8.59383 31.337 8.52361C31.327 8.29271 31.3774 8.04191 31.2664 7.96161C31.2963 7.95178 31.3469 7.93171 31.3068 7.89131C31.2768 7.84091 31.3168 7.77069 31.3068 7.75062C31.2664 7.70039 31.3168 7.63009 31.337 7.60002C31.2362 7.42951 31.2966 7.269 31.2262 7.08799C31.3475 6.8371 31.1456 6.5359 31.1155 6.295C31.0853 6.08418 31.1454 5.93358 31.0448 5.83337C31.0648 5.78298 31.0852 5.73317 31.0852 5.6826C30.9845 5.70268 31.0651 5.63237 31.0247 5.58257C30.934 5.41197 30.9843 5.11077 30.8735 4.96017C30.8934 4.91994 30.9034 4.86988 30.9139 4.81965C30.8134 4.6289 30.9139 4.39791 30.8735 4.16693C30.8635 4.07672 30.803 4.00625 30.7727 3.91613C30.6921 3.66532 30.7224 3.3742 30.7323 3.08291C30.7422 2.79161 30.7422 2.49041 30.7422 2.16939C30.803 2.07918 30.8328 1.89817 30.803 1.74765C30.8934 1.62704 30.9034 1.46644 30.9541 1.32592C30.974 1.28569 31.0147 1.24562 31.0247 1.19523C31.0348 1.135 31.0147 1.0547 31.0247 0.984401C31.0853 1.0143 31.1053 0.964326 31.1659 0.954331C31.1659 0.773996 31.2765 0.773996 31.2665 0.6029C31.3571 0.552504 31.3876 0.442304 31.5388 0.452299C31.559 0.261549 31.7303 0.271628 31.9017 0.321605C31.9823 0.35159 32.043 0.391992 32.0529 0.431889C32.073 0.401903 32.0933 0.361586 32.1537 0.371581C32.1637 0.421809 32.1335 0.441884 32.1537 0.471786C32.4056 0.501688 32.4661 0.732587 32.708 0.782983C32.8391 0.933585 32.9903 1.0542 33.1314 1.19439C33.1415 1.31509 33.2526 1.33491 33.3027 1.41529C33.3027 1.47568 33.3229 1.48551 33.3027 1.52557C33.3229 1.53549 33.3834 1.50558 33.3834 1.53549C33.3732 1.70599 33.464 1.77638 33.454 1.94689C33.4943 1.97687 33.5144 2.0072 33.5346 2.05709C33.6051 2.23759 33.6252 2.52897 33.6051 2.75978C33.6958 2.80001 33.6455 2.98068 33.7463 3.00059C33.7059 3.14128 33.8069 3.25148 33.8269 3.36219C33.7664 3.38201 33.7664 3.40242 33.7563 3.46239C33.716 3.6633 33.9377 3.91419 33.9075 4.155C33.9377 4.21548 33.9781 4.2353 33.9881 4.30561C34.0083 4.4263 33.9477 4.56649 34.0587 4.6268C34.0289 4.6467 33.9982 4.67711 33.9982 4.727C34.1089 4.928 34.0284 5.27918 34.0587 5.5703C34.0688 5.6506 34.0991 5.7309 34.0991 5.8112C34.1091 5.9214 34.0991 6.01211 34.0891 6.10232C34.1897 6.37354 34.0991 6.67449 34.1495 6.96561C34.1597 7.01592 34.2 7.07581 34.2101 7.11613C34.2707 7.37693 34.2608 7.66822 34.2806 7.90903C34.2907 7.99932 34.2707 8.08962 34.2806 8.18025C34.2907 8.26063 34.3314 8.34084 34.3514 8.43114C34.3814 8.59173 34.3612 8.75233 34.4318 8.85287C34.4318 8.90318 34.3713 8.90318 34.3915 8.98348C34.452 9.1041 34.4418 9.24437 34.462 9.37506C34.4822 9.46527 34.5226 9.55556 34.5326 9.64619C34.5426 9.76689 34.5026 9.88709 34.5226 10.0177C34.5426 10.1483 34.6132 10.2785 34.6232 10.3992C34.6232 10.5094 34.5829 10.6202 34.5931 10.7203C34.5931 10.7203 34.6232 10.7403 34.6232 10.7503C34.6334 10.8107 34.6132 10.8107 34.6232 10.8306C34.6434 10.9209 34.6838 11.0012 34.6938 11.1018C34.704 11.1922 34.6636 11.2926 34.6838 11.3831C34.6938 11.4433 34.7344 11.4833 34.7443 11.5337C34.7745 11.6742 34.7544 11.8348 34.7745 11.9854C34.835 12.3968 34.966 12.7988 34.9558 13.2401C34.9458 13.27 35.0363 13.1999 35.0264 13.27C35.0164 13.3603 34.9861 13.4306 34.9657 13.5109C35.0363 13.6514 34.9857 13.8521 35.0264 14.023C35.0563 14.1536 35.107 14.2738 35.1371 14.4044C35.1673 14.5351 35.1878 14.6757 35.1673 14.8159C35.2883 14.9565 35.1774 15.2377 35.2278 15.4183C35.2479 15.4886 35.2983 15.539 35.3085 15.5988C35.3385 15.7494 35.2883 15.8901 35.3085 16.0506C35.2983 16.111 35.3891 16.0706 35.379 16.1309C35.3386 16.2915 35.4092 16.4021 35.4194 16.5224C35.4292 16.6431 35.4292 16.7732 35.4494 16.9039C35.4695 17.0246 35.4999 17.1547 35.5099 17.2653C35.5099 17.3157 35.49 17.3859 35.4999 17.4359C35.5099 17.4962 35.5804 17.5566 35.5804 17.6164C35.5905 17.6668 35.5603 17.7371 35.5704 17.7871C35.5804 17.8473 35.6212 17.8973 35.631 17.9576C35.6409 18.0179 35.6111 18.0883 35.6212 18.1585C35.641 18.3492 35.7522 18.51 35.6615 18.6402C35.722 18.6804 35.7019 18.7504 35.6615 18.8107C35.7722 18.911 35.7121 19.1219 35.7722 19.2925C35.6917 19.3628 35.7318 19.473 35.7421 19.5134C35.7825 19.6237 35.7623 19.7543 35.7722 19.9049C35.7922 20.2564 35.8933 20.6276 35.8727 21.0194C36.004 21.1799 35.9131 21.4911 35.9534 21.7524C35.9635 21.8126 36.004 21.8829 36.0141 21.9533C36.034 22.0739 36.0141 22.1842 36.0545 22.2945C36.1553 22.2645 36.2358 22.1843 36.3367 22.1438C36.3771 22.1239 36.4274 22.1239 36.4681 22.1036C36.5286 22.0737 36.5686 22.0234 36.6193 21.9934C36.6698 21.9635 36.7403 21.9635 36.7903 21.9332C36.881 21.8828 36.9516 21.8025 37.0423 21.7625C37.1028 21.7326 37.1635 21.7223 37.2237 21.6923C37.2436 21.6823 37.2641 21.642 37.2943 21.632C37.3346 21.6119 37.3749 21.632 37.4049 21.622C37.4656 21.5921 37.5057 21.5417 37.5561 21.5118C37.6069 21.5017 37.6268 21.5218 37.6569 21.5218C37.788 21.3911 37.9694 21.3208 38.1407 21.2405C38.3824 21.1303 38.5842 20.9897 38.8459 20.9194C38.9873 20.7388 39.3196 20.7388 39.4708 20.5678C39.5112 20.5678 39.5514 20.5678 39.5817 20.5678C39.6421 20.4675 39.7328 20.4675 39.8333 20.4272C40.0552 20.3369 40.2264 20.1763 40.5089 20.1559C40.5288 20.0757 40.6299 20.0857 40.7106 20.0757C40.8819 19.8747 41.2146 19.8448 41.4362 19.6943C41.4766 19.6943 41.5168 19.6943 41.5674 19.6943C41.7387 19.584 41.9505 19.5036 42.1722 19.4434C42.2227 19.4534 42.1823 19.3631 42.2126 19.3631C42.4244 19.4033 42.5655 19.2728 42.7063 19.1926C42.928 19.2026 42.9785 19.052 43.1999 19.0619C43.2704 18.9916 43.351 18.9313 43.5123 18.9517C43.5424 18.9318 43.5527 18.8915 43.5929 18.8814C43.8147 18.8211 44.0266 18.7108 44.2584 18.6405C44.3691 18.6106 44.4903 18.5702 44.601 18.5303C44.7119 18.4901 44.8029 18.4301 44.9134 18.3897C45.0243 18.3495 45.1453 18.3293 45.2665 18.2894C45.3877 18.2492 45.4984 18.1791 45.609 18.1588C45.7502 18.1389 45.8813 18.1588 46.0021 18.1488C46.3852 18.1086 46.6976 18.0182 47.0505 17.938C47.0909 18.0281 47.1112 18.1488 47.1818 18.2192C47.2924 18.2291 47.3329 18.179 47.4334 18.1891C47.4842 18.2496 47.5342 18.2994 47.6148 18.2994C47.6854 18.2994 47.756 18.2391 47.8567 18.2192C48.0785 18.1488 48.2196 18.1189 48.2802 18.3498C48.2096 18.39 48.1796 18.5003 48.099 18.5507C48.0383 18.591 47.9577 18.591 47.8971 18.621C47.8366 18.6509 47.7966 18.6913 47.7459 18.7312C47.6453 18.8115 47.5443 18.8919 47.4436 18.9821C47.4236 19.0324 47.4334 19.1227 47.4032 19.1627C47.252 19.1725 47.2014 19.2932 47.0402 19.3032C47.0302 19.3332 47.0402 19.3936 47.0302 19.4538C46.7077 19.6244 46.3749 19.7849 46.1835 20.0861C46.1635 20.1061 46.1129 20.0961 46.0729 20.0961C46.0429 20.1364 46.0628 20.2063 46.0124 20.2268C45.9116 20.2367 45.841 20.317 45.7604 20.3673C45.6697 20.4277 45.5186 20.4776 45.448 20.538C45.4076 20.5479 45.4379 20.6281 45.4076 20.6482C45.317 20.6782 45.2564 20.7186 45.1557 20.7285C45.1153 20.7688 45.065 20.8087 45.0146 20.7989C44.9742 20.8991 44.8433 20.9196 44.7928 21.0097C44.5003 21.1199 44.3191 21.3509 43.9562 21.3912C43.9158 21.4416 43.8955 21.4815 43.8454 21.5014C43.805 21.5115 43.8254 21.5014 43.7849 21.5313C43.7445 21.5716 43.7043 21.5817 43.7243 21.6417C43.5225 21.6316 43.4925 21.8022 43.3613 21.8625C43.3209 21.8625 43.2807 21.8625 43.2301 21.8625C43.0991 21.9833 42.9277 22.0331 42.7765 22.1134C42.6354 22.1937 42.4742 22.3042 42.2827 22.3243C42.1416 22.4246 41.9804 22.5352 41.8292 22.6055C41.658 22.6858 41.4662 22.7462 41.305 22.8264C41.2444 22.8563 41.2043 22.8968 41.1537 22.9266C41.0531 22.9669 40.9622 22.997 40.8715 23.0369C40.6095 23.1675 40.3777 23.3781 40.0754 23.4285C40.035 23.4383 40.0652 23.5186 40.0147 23.5285C39.8837 23.5989 39.7529 23.6692 39.6216 23.7296C39.4704 23.7899 39.3698 23.8702 39.2386 23.9505C38.9968 24.1111 38.7346 24.2417 38.5433 24.4626C38.3114 24.4825 38.2609 24.6934 38.0291 24.7338C38.0591 24.7437 38.0391 24.824 38.0391 24.8644C37.9383 24.8744 37.7668 24.9247 37.7166 25.015C37.5856 24.995 37.5251 25.0954 37.4344 25.1457C37.2931 25.226 37.1119 25.2862 37.0109 25.3966C36.8799 25.4266 36.7491 25.4868 36.7186 25.6175C36.6985 25.6977 36.7487 25.8184 36.7287 25.9386C36.7186 26.0389 36.638 26.1193 36.648 26.2098C36.648 26.2802 36.7085 26.3505 36.7186 26.4208C36.7487 26.6115 36.6985 26.8122 36.7792 26.9727C36.7891 27.0332 36.7085 27.013 36.7388 27.083C36.7287 27.1533 36.7792 27.1633 36.7792 27.2137C36.7691 27.2436 36.7286 27.2436 36.7388 27.294C36.7587 27.3342 36.7892 27.4245 36.7487 27.4745C36.8494 27.5348 36.7688 27.7756 36.8594 27.836C36.7587 27.9766 36.8594 28.0969 36.8695 28.2274C36.8896 28.3781 36.8795 28.5386 36.8795 28.7191C36.8695 28.7894 36.98 28.7491 36.98 28.8194C36.9296 28.9401 36.9095 29.171 36.9901 29.2712C36.9295 29.4722 37.0808 29.6327 37.0202 29.8332C37.0403 29.8835 37.0908 29.8935 37.1008 29.9434C37.0808 29.9938 37.0403 30.0237 37.0403 30.084C37.2318 30.7867 37.272 31.7002 37.3828 32.343C37.4129 32.5235 37.4534 32.7045 37.4634 32.8751C37.4735 33.0658 37.4434 33.2266 37.534 33.3169C37.4936 33.4774 37.6146 33.638 37.6347 33.8291C37.6546 34.0198 37.5943 34.2404 37.7053 34.3411C37.7154 34.4014 37.6546 34.3914 37.6649 34.4413C37.8062 34.5919 37.655 34.9435 37.7757 35.104C37.7858 35.1544 37.7152 35.1442 37.7353 35.2043C37.8259 35.2945 37.7757 35.4352 37.8058 35.5557C37.8259 35.636 37.8965 35.7064 37.8666 35.7967C37.9772 35.9673 37.9877 36.2988 37.9976 36.5895C38.0077 36.8005 38.1388 37.0314 38.0683 37.172C38.0481 37.2123 38.0582 37.2019 38.0582 37.2422C38.0481 37.3125 38.0683 37.3829 38.0683 37.4532C38.0683 37.6137 38.0481 37.8047 38.0381 37.9753C38.0182 38.2361 38.0282 38.5173 37.9575 38.6779C37.9877 38.7482 38.0282 38.8185 38.0582 38.8889C38.0077 39.0594 38.0986 39.2405 38.1187 39.4209C38.0481 39.5212 38.1591 39.5816 38.0582 39.6718C38.1388 39.6518 38.1187 39.7621 38.1288 39.8024C38.1489 39.8628 38.1795 39.9027 38.1994 39.9431C38.1489 40.0837 38.28 40.1938 38.2295 40.3345C38.3101 40.4247 38.3907 40.6757 38.3001 40.8162C38.3606 40.9065 38.4312 41.077 38.3302 41.1677C38.3907 41.1578 38.3706 41.2181 38.3706 41.268C38.3405 41.3082 38.3101 41.3483 38.2699 41.3783C38.2295 41.4081 38.1794 41.4185 38.1388 41.4586C38.0481 41.6092 38.1489 41.6993 38.1792 41.8499C38.2196 42.0406 38.1891 42.2214 38.2597 42.3416C38.1285 42.5222 38.2696 42.8537 38.2193 43.0847C38.3099 43.1249 38.3503 43.2754 38.3 43.3958C38.3905 43.4961 38.3705 43.707 38.4511 43.8073C38.4611 43.8576 38.4107 43.8475 38.3905 43.8775C38.4813 43.9074 38.4205 44.0984 38.4611 44.1887C38.431 44.2188 38.431 44.289 38.3905 44.3193C38.4411 44.5402 38.5012 44.7208 38.4712 44.9117C38.5617 45.0424 38.4911 45.2129 38.5011 45.3636C38.5213 45.5544 38.6523 45.7649 38.5112 45.9255C38.5617 46.0561 38.5516 46.327 38.4813 46.4377C38.5112 46.4575 38.5112 46.498 38.5217 46.5378C38.5417 46.5982 38.4511 46.5579 38.4611 46.6081C38.4712 46.6484 38.5316 46.6281 38.5217 46.6884C38.4712 46.6984 38.4411 46.7287 38.411 46.7588C38.4208 46.8191 38.3706 46.869 38.3502 46.9393C38.3704 47.1 38.3403 47.3008 38.2797 47.4211C38.1792 47.4614 38.1487 47.3003 38.1285 47.3607C38.1285 47.5013 38.1487 47.6818 38.068 47.7521C37.9773 47.7621 37.9874 47.6619 37.9268 47.6419C37.7556 47.7023 37.6648 47.5617 37.5639 47.5013C37.5337 47.2405 37.2814 47.1298 37.322 46.8486C37.2514 46.8084 37.2213 46.728 37.2213 46.6277C37.2012 46.6077 37.1608 46.6077 37.1608 46.5674C37.1204 46.3767 36.9995 46.2562 36.9895 46.0354C36.8685 45.925 36.8483 45.7342 36.8081 45.5536C36.7782 45.4532 36.7277 45.3629 36.7277 45.2624C36.8384 45.2222 36.9693 45.2121 37.05 45.152C36.9693 44.9817 36.8887 44.8007 36.8789 44.5497C36.7681 44.4795 36.7882 44.3488 36.7681 44.2385L36.7381 44.2286C36.7281 44.2087 36.748 44.1884 36.748 44.1884C36.748 44.1685 36.7181 44.1685 36.7181 44.1584C36.7181 44.1386 36.7381 44.1386 36.7281 44.1182C36.708 44.0678 36.6674 44.0179 36.6574 43.9675C36.6475 43.9172 36.6674 43.8673 36.6574 43.817C36.6475 43.7466 36.607 43.6663 36.5868 43.596C36.5669 43.5157 36.5364 43.4354 36.5162 43.3551C36.4758 43.1946 36.4056 43.044 36.365 42.8934C36.3351 42.7727 36.3246 42.6525 36.2844 42.5418C36.2038 42.3011 36.1737 42.0197 36.0627 41.8192C36.1031 41.7088 36.0223 41.6182 36.0326 41.4979C36.0326 41.4376 35.952 41.468 35.9621 41.3977C36.0024 41.2069 35.8614 41.0162 35.8207 40.8357C35.7908 40.6951 35.8108 40.5146 35.7803 40.4139C35.7097 40.1732 35.609 39.9522 35.609 39.7115C35.4984 39.5309 35.478 39.2497 35.4279 38.9888C35.3875 38.7879 35.3473 38.5872 35.2967 38.3964C35.2361 38.1455 35.1051 37.8343 35.1154 37.6034C35.1154 37.5836 35.0853 37.5836 35.0853 37.5736C35.0655 37.4733 35.0754 37.3528 35.0449 37.2823C35.0248 37.232 34.9542 37.2022 34.9643 37.1416C35.0148 36.9613 34.9442 36.71 34.8937 36.5393C34.8837 36.489 34.9844 36.5193 34.9341 36.4691C34.813 36.0373 34.753 35.6458 34.6217 35.2743C34.4904 34.9028 34.3799 34.4814 34.3293 34.0596C34.3393 33.9893 34.2486 34.0396 34.2587 33.9793C34.3192 33.889 34.2587 33.8186 34.2183 33.7584C34.2989 33.5175 34.1882 33.357 34.1476 33.136C34.1176 32.9854 34.1476 32.8048 34.1176 32.6442C34.1075 32.584 34.0671 32.534 34.047 32.4736C34.0269 32.3935 34.0169 32.2829 34.0169 32.2329C34.0169 32.2128 33.9869 32.2128 33.9869 32.2029C33.9769 32.1126 33.997 32.0223 33.9869 31.9318C33.9769 31.8813 33.9465 31.8414 33.9465 31.7909C33.9465 31.7407 33.9665 31.6807 33.9565 31.6206C33.9565 31.4095 33.8559 31.1786 33.8154 30.9478C33.775 30.707 33.7549 30.4561 33.7147 30.2148C33.644 29.743 33.5534 29.2611 33.4728 28.8095C33.4428 28.7797 33.4324 28.7194 33.4122 28.6789C33.4122 28.6387 33.4122 28.5986 33.4122 28.5484C33.3117 28.5183 33.3317 28.3375 33.241 28.3777C33.1604 28.2372 33.1098 28.0665 32.9286 28.0565C32.6768 28.0367 32.5256 28.3075 32.3038 28.448C32.2432 28.4882 32.1826 28.4985 32.1325 28.5283C32.0721 28.5685 32.0418 28.6387 31.9612 28.6286C31.9512 28.6789 32.0118 28.699 31.9713 28.7289C31.6287 29.04 31.2153 29.3213 30.8927 29.6325C30.8021 29.7128 30.7617 29.8334 30.6206 29.8434C30.5802 29.9536 30.4893 30.0039 30.4087 30.0542C30.348 30.0944 30.298 30.1446 30.2575 30.1848C30.2374 30.1948 30.2069 30.1948 30.1868 30.2148C30.1465 30.2448 30.1465 30.3252 30.0762 30.2951C30.0661 30.4357 29.915 30.4256 29.8743 30.536C29.8444 30.536 29.8037 30.536 29.7738 30.536C29.7738 30.6363 29.673 30.6363 29.6326 30.7066C29.6025 30.7468 29.5719 30.8272 29.5719 30.8572C29.5419 30.8272 29.5215 30.8572 29.4714 30.8572C29.431 30.9375 29.3502 30.9978 29.29 31.0581C29.2195 31.1183 29.1489 31.1886 29.0682 31.2286C29.0784 31.309 28.9977 31.309 29.0078 31.3991C28.9571 31.3792 28.9571 31.3991 28.897 31.3991C28.8869 31.4496 28.8566 31.4893 28.7964 31.4994C28.7457 31.65 28.6452 31.7504 28.5445 31.8406C28.5143 31.8909 28.5646 31.8909 28.5545 31.9508C28.3527 32.0013 28.4538 32.292 28.4437 32.503C28.4338 32.5532 28.5143 32.5129 28.5044 32.5732C28.5143 32.8744 28.5244 33.0852 28.6456 33.3161C28.6052 33.4064 28.6556 33.5272 28.6756 33.6273C28.6957 33.7277 28.7263 33.8383 28.7462 33.9485C28.7764 34.1894 28.7462 34.4706 28.8068 34.6914C28.8472 34.8721 29.0086 35.0326 28.9175 35.2037C28.968 35.2439 28.968 35.3343 28.978 35.4046C29.0082 35.6154 29.0485 35.8363 29.0788 36.0069C29.0887 36.0369 29.0687 36.0772 29.0788 36.1072C29.0988 36.2073 29.1694 36.3281 29.1392 36.4587C29.2299 36.549 29.2098 36.7096 29.1998 36.8701C29.2299 36.9205 29.2803 36.9305 29.3005 37.0008C29.3206 37.0711 29.2905 37.1713 29.3005 37.2417C29.3105 37.3622 29.3711 37.4825 29.3811 37.5931C29.3912 37.6935 29.3711 37.7239 29.3912 37.7942C29.4012 37.8139 29.4012 37.8445 29.4012 37.8644C29.4311 37.9646 29.4517 38.0351 29.4311 38.1456C29.5118 38.2159 29.5524 38.3665 29.5118 38.507C29.5723 38.5873 29.5419 38.768 29.6125 38.8482C29.6225 38.8884 29.5721 38.8781 29.5823 38.9285C29.663 39.0491 29.673 39.1892 29.6932 39.3398C29.7231 39.4807 29.7838 39.6212 29.8038 39.7616C29.8138 39.8218 29.7939 39.882 29.8038 39.9419C29.8138 40.0124 29.8744 40.0827 29.8843 40.153C29.9146 40.2632 29.8843 40.3839 29.9146 40.5044C29.9246 40.5547 29.965 40.6047 29.9851 40.655C30.0457 40.8356 30.0255 41.0465 30.1162 41.2071C30.0758 41.3978 30.1263 41.6788 30.1566 41.9298C30.1665 41.9802 30.1566 42.0301 30.1665 42.0705C30.1866 42.1308 30.2272 42.1807 30.2372 42.2409C30.2471 42.2914 30.2272 42.3717 30.2372 42.4216C30.2471 42.5118 30.3078 42.6021 30.3078 42.6724C30.3078 42.7228 30.2674 42.7627 30.2674 42.813C30.3581 43.0037 30.3181 43.2948 30.2976 43.5356C30.2875 43.5657 30.217 43.5357 30.227 43.5759C30.2674 43.9374 30.3682 44.2385 30.4082 44.5996C30.3982 44.6601 30.4988 44.5996 30.4787 44.6701C30.4689 44.8305 30.4588 44.9513 30.4888 45.0918C30.519 45.2124 30.6201 45.2926 30.6201 45.403C30.6201 45.4832 30.5797 45.5235 30.5494 45.6038C30.61 45.7346 30.5594 45.8648 30.5794 45.9953C30.5794 46.0356 30.6095 46.0656 30.6198 46.1056C30.6198 46.1255 30.5998 46.1458 30.6098 46.1759C30.6098 46.2462 30.6704 46.3364 30.6198 46.4267C30.5998 46.4772 30.5192 46.467 30.4786 46.497C30.5692 46.5269 30.519 46.708 30.519 46.7478C30.5695 46.8381 30.539 46.9284 30.5594 47.0291C30.5794 47.1598 30.6702 47.2899 30.6702 47.4405C30.6702 47.5208 30.64 47.6011 30.66 47.6814C30.6702 47.7416 30.7306 47.802 30.7407 47.8619C30.7607 47.9521 30.7508 48.0828 30.7508 48.183C30.7707 48.5142 30.7607 48.8357 30.7508 49.1366C30.7607 49.1869 30.6902 49.1769 30.7104 49.2367C30.7405 49.2971 30.7508 49.3774 30.781 49.4477C30.8129 49.5152 30.8735 49.6152 30.8936 49.7257Z"></path>
<path fill="#1A1A1A" d="M70.627 19.9906C70.627 20.0006 70.627 20.0106 70.627 20.0207C70.5162 20.0809 70.415 20.1411 70.3146 20.2215C70.2339 20.2215 70.1634 20.2315 70.1029 20.2516C70.032 20.2917 69.9715 20.3618 69.8909 20.3921C69.8001 20.4324 69.6993 20.4324 69.6086 20.4624C69.5179 20.4925 69.4373 20.5628 69.3567 20.613C69.266 20.6732 69.1756 20.7234 69.0643 20.7436C69.0442 20.7736 69.0442 20.8338 68.9938 20.8239C68.6814 20.9141 68.4294 21.1755 68.1169 21.2756C68.0463 21.2956 67.9657 21.2956 67.9052 21.3158C67.8447 21.3358 67.8048 21.3961 67.7339 21.4262C67.6633 21.4559 67.5928 21.4664 67.5222 21.4965C67.3911 21.5467 67.2604 21.6169 67.1291 21.6667C66.9275 21.747 66.7762 21.8273 66.605 21.8876C66.5344 22.0382 66.3432 22.0285 66.1921 22.0988C66.1313 22.1285 66.0812 22.1891 66.0207 22.209C65.8994 22.2692 65.7484 22.2994 65.6075 22.3496C65.537 22.3696 65.4664 22.4002 65.3958 22.4198C65.3152 22.4399 65.2345 22.4399 65.1539 22.4601C65.0632 22.4901 64.9825 22.5404 64.8818 22.5703C64.781 22.6002 64.6798 22.6307 64.5793 22.6505C64.3878 22.7111 64.1963 22.7813 63.9944 22.8311C63.5815 22.9315 63.1984 23.1024 62.8352 23.2126C62.7546 23.3333 62.6034 23.3732 62.5429 23.5038C62.6537 23.5941 62.5935 23.7447 62.6134 23.9255C62.6336 24.0862 62.6941 24.2564 62.684 24.3773C62.684 24.407 62.7142 24.4475 62.6437 24.4576C62.7243 24.5678 62.6537 24.7387 62.6736 24.8688C62.6836 24.9194 62.714 24.9491 62.714 24.9997C62.7241 25.1302 62.7039 25.2507 62.7039 25.3812C62.7039 25.7024 62.7644 26.0337 62.7845 26.365C62.8144 26.6862 62.8144 27.0176 62.845 27.3388C62.8955 28.0017 62.9662 28.6739 62.9862 29.3669C62.9662 29.4372 63.0568 29.3866 63.0467 29.4473C63.0467 29.5175 62.9761 29.5276 62.9862 29.6175C63.1075 29.7484 63.0063 30.0291 63.0467 30.2399C63.0567 30.3202 63.1176 30.3905 63.1273 30.4608C63.178 30.672 63.1075 30.963 63.1575 31.1836C63.1776 31.2639 63.2381 31.3341 63.2381 31.4044C63.2482 31.4646 63.218 31.5249 63.228 31.5851C63.2381 31.6452 63.2785 31.7156 63.2986 31.7859C63.3288 31.9063 63.3288 32.0467 63.3591 32.1673C63.3893 32.328 63.4099 32.4685 63.4297 32.6191C63.4397 32.6793 63.4805 32.7397 63.4905 32.7998C63.5002 32.85 63.4805 32.91 63.4905 32.9504C63.5002 33.0006 63.5309 33.0504 63.551 33.1009C63.5914 33.2616 63.6216 33.4421 63.682 33.6129C63.7123 33.6932 63.7325 33.7735 63.7526 33.8539C63.7728 33.9442 63.8232 34.0342 63.8232 34.1046C63.8232 34.1948 63.7828 34.2851 63.7933 34.3758C63.803 34.436 63.8337 34.4561 63.8538 34.5163C63.9143 34.958 64.1056 35.2495 64.3074 35.6607C64.388 35.8314 64.4687 36.002 64.5896 36.2128C64.6503 36.323 64.8516 36.6546 64.9727 36.6646C65.0835 36.6746 65.1339 36.5742 65.1844 36.524C65.2552 36.4638 65.3557 36.4032 65.3964 36.3735C65.5375 36.263 65.6988 36.1626 65.7894 36.0522C65.85 35.9719 65.8899 35.8515 65.9407 35.731C65.9705 35.6708 66.0311 35.6208 66.0513 35.5804C66.0715 35.5302 66.0614 35.4702 66.0815 35.4097C66.1114 35.3198 66.1819 35.2294 66.2327 35.1387C66.2831 35.0483 66.3234 34.9479 66.3638 34.8476C66.4444 34.6366 66.5754 34.4561 66.5856 34.2452C66.6863 34.205 66.6762 34.0646 66.7267 33.9943C66.767 33.934 66.8479 33.8939 66.898 33.8236C67.0693 33.5827 67.1804 33.2413 67.2911 32.9804C67.3415 32.8702 67.3717 32.7394 67.4222 32.6893C67.5229 32.5687 67.7145 32.5889 67.7753 32.4383C67.8358 32.4483 67.8458 32.4185 67.9064 32.4282C67.9164 32.3482 67.9669 32.3078 68.0172 32.2579C67.8858 32.0773 67.8257 31.7159 68.0977 31.6556C68.1075 31.5753 68.1684 31.5348 68.1983 31.475C68.2184 31.4449 68.2083 31.3947 68.2285 31.3645C68.2385 31.3448 68.3289 31.3244 68.2889 31.2646C68.2991 31.2344 68.3897 31.2745 68.3696 31.2243C68.3994 31.1946 68.41 31.144 68.4301 31.0938C68.4502 31.0637 68.5308 31.0536 68.5006 31.0135C68.4906 30.9131 68.4603 30.8428 68.4708 30.7324C68.5814 30.7324 68.5212 30.5718 68.6518 30.5918C68.7526 30.6818 68.6318 30.8424 68.622 30.9733C68.622 31.0235 68.6824 31.0534 68.6319 31.1038C68.6619 31.1336 68.7426 31.1038 68.7325 31.1741C68.682 31.3247 68.5914 31.4853 68.6319 31.6861C68.7025 31.7367 68.7732 31.6058 68.8337 31.6861C68.8538 31.7466 68.8437 31.8567 68.8741 31.9069C68.7428 32.0575 68.7127 32.3185 68.5815 32.4691C68.6017 32.6498 68.4908 32.7502 68.4504 32.8506C68.3698 33.0614 68.3799 33.2923 68.269 33.4429C68.2892 33.6737 68.1079 33.7641 68.1884 33.9552C68.0273 34.0857 68.0273 34.2964 67.9667 34.4773C67.9062 34.6477 67.8055 34.7984 67.7449 34.969C67.6743 35.1497 67.6038 35.3405 67.5433 35.5312C67.5131 35.5714 67.4426 35.5609 67.4426 35.6316C67.3619 35.8822 67.1703 36.0227 67.12 36.2942C67.0494 36.3544 66.9688 36.4044 66.949 36.515C66.8683 36.505 66.8983 36.6054 66.8176 36.5953C66.737 36.8162 66.5453 36.9365 66.4648 37.1575C66.414 37.1474 66.3741 37.1772 66.3335 37.1976C66.233 37.2679 66.1624 37.3683 66.0817 37.4486C65.9504 37.4783 65.9003 37.5892 65.7593 37.5992C65.4063 38.071 64.469 38.1714 63.6829 38.0409C63.7434 37.9506 63.5922 38.0007 63.6123 37.9104C63.3906 37.8401 63.2495 37.7092 63.0579 37.6289C62.9874 37.5992 62.937 37.5687 62.8769 37.5289C62.8161 37.4887 62.7661 37.4185 62.675 37.4285C62.5745 37.3081 62.4232 37.2278 62.2919 37.1374C62.302 37.0772 62.2621 37.0671 62.2621 37.027C61.9898 36.8467 61.8386 36.5353 61.7277 36.2239C61.6372 35.993 61.5258 35.7621 61.4354 35.5212C61.3646 35.3405 61.3041 35.1598 61.2841 34.959C61.0223 34.5775 61.0925 33.9653 60.8405 33.5235C60.8405 33.4733 60.9009 33.4937 60.8809 33.4234C60.6691 32.8308 60.6691 32.0281 60.4574 31.4758C60.5482 31.3656 60.4675 31.275 60.4474 31.1646C60.4175 31.014 60.4376 30.8935 60.3668 30.8234C60.4072 30.6527 60.2663 30.3814 60.3264 30.1506C60.3365 30.1002 60.2659 30.1307 60.286 30.0704C60.276 29.8693 60.2661 29.6689 60.276 29.4481C60.2959 29.3876 60.2253 29.4179 60.2356 29.3677C60.2961 29.3172 60.2356 29.2774 60.2255 29.1971C60.1956 29.0365 60.2056 28.8659 60.1956 28.6851C60.1149 27.5004 60.0444 26.2555 59.913 25.1815C59.9738 24.8602 59.8627 24.4788 59.8526 24.1271C59.6007 24.2074 59.3889 24.388 59.1167 24.4484C59.0059 24.4683 58.8949 24.4484 58.7943 24.5086C58.7237 24.5488 58.6731 24.6692 58.5925 24.6792C58.26 24.7395 57.9476 24.9503 57.5846 25.0004C57.5442 25.0004 57.5645 25.0708 57.5139 25.0607C57.3629 25.0708 57.2215 25.1112 57.0905 25.161C56.9594 25.2013 56.8486 25.2816 56.7276 25.3116C56.6369 25.3414 56.5258 25.3414 56.4151 25.3719C56.2236 25.4222 56.0422 25.4927 55.8203 25.4121C55.7297 25.4318 55.689 25.4824 55.6185 25.4121C55.6185 25.1812 55.3767 25.1909 55.3767 24.96C55.5682 24.98 55.6285 24.8697 55.7297 24.8094C55.8809 24.7094 56.0825 24.6187 56.2639 24.5283C56.3546 24.4781 56.4554 24.448 56.5462 24.3978C56.647 24.3472 56.758 24.3175 56.8286 24.2669C56.869 24.2371 56.8892 24.1669 56.9393 24.1567C57.0905 24.1567 57.1711 24.1768 57.2618 24.1267C57.3624 24.0764 57.423 23.9463 57.5136 23.9158C57.5743 23.8858 57.6448 23.9058 57.7154 23.8858C57.8464 23.856 57.9673 23.7756 58.0783 23.7352C58.1995 23.6849 58.3303 23.6549 58.4314 23.5648C58.6229 23.5448 58.7337 23.4545 58.875 23.3942C59.1874 23.2536 59.4495 23.123 59.7517 23.0027C59.7218 22.7818 59.6912 22.5409 59.6712 22.31C59.6412 22.0691 59.6412 21.8283 59.5706 21.6173C59.5706 21.5874 59.6211 21.5874 59.611 21.5471C59.5605 21.5069 59.5605 21.4266 59.5505 21.3463C59.5303 21.1857 59.5605 20.9747 59.4799 20.8845C59.5 20.8644 59.5404 20.8544 59.5203 20.8042C59.4199 20.5733 59.4904 20.2621 59.4097 20.0312C59.4398 19.9104 59.4398 19.7702 59.4198 19.6397C59.4097 19.5295 59.3591 19.459 59.3492 19.3687C59.319 19.1779 59.379 18.9968 59.3492 18.8065C59.3391 18.7262 59.2886 18.676 59.2686 18.5957C59.2384 18.4749 59.2384 18.3244 59.2282 18.1841C59.2182 18.0436 59.1982 17.903 59.1878 17.7728C59.1776 17.632 59.1978 17.4914 59.1878 17.3613C59.1676 17.1806 59.0565 17.0099 59.1474 16.8393C59.0367 16.5984 59.1373 16.3371 59.107 16.0663C59.0969 16.006 59.0666 15.9457 59.0666 15.8856C59.0367 15.5547 59.0567 15.193 59.0367 14.8415C59.0166 14.2593 59.0166 13.6671 58.9359 13.135C58.9561 13.1052 58.9661 13.0747 58.9763 13.0349C59.037 12.784 58.9257 12.4728 58.9058 12.1616C58.8858 11.8504 58.9462 11.5793 58.9058 11.3484C58.7745 11.2276 58.9058 10.9368 58.8654 10.716C58.8553 10.6558 58.8148 10.6157 58.8049 10.5654C58.7949 10.4951 58.8349 10.4349 58.8349 10.3646C58.8349 10.314 58.7945 10.2843 58.7945 10.2337C58.7845 10.1635 58.7945 10.1133 58.8247 10.0635C58.724 9.9531 58.7639 9.75227 58.754 9.5716C58.724 8.90897 58.6934 8.1862 58.6834 7.51358C58.7341 7.47335 58.7238 7.38305 58.7639 7.31284C58.7034 7.16223 58.8546 7.04162 58.7639 6.93134C58.8445 6.8911 58.8546 6.78073 58.8445 6.64987C58.8849 6.57957 58.9554 6.52942 58.9252 6.39923C59.0565 6.32893 59.036 6.10786 59.1771 6.04755C59.1771 6.00732 59.1771 5.97725 59.1771 5.93735C59.2578 5.87688 59.3183 5.80649 59.3989 5.72636C59.4694 5.65589 59.53 5.55585 59.6106 5.50529C59.6811 5.45506 59.8124 5.39509 59.903 5.35468C60.0137 5.30446 60.1249 5.24448 60.2254 5.22416C60.4068 5.20408 60.5984 5.23424 60.7496 5.14386C60.7899 5.17393 60.8202 5.20408 60.8605 5.22416C60.8805 5.24423 60.9209 5.28447 60.931 5.29446C60.9511 5.30446 60.9611 5.29446 60.9714 5.30446C61.0219 5.35468 61.0419 5.41474 61.082 5.47513C61.1324 5.53536 61.2031 5.55543 61.2232 5.62573C61.3743 5.61565 61.3844 5.74618 61.5356 5.73593C61.576 5.82623 61.6464 5.87646 61.7573 5.88653C61.7675 6.0174 61.8887 6.02706 61.9592 6.08762C62.0399 6.27837 62.1911 6.44904 62.1105 6.74025C62.1004 6.78048 62.0399 6.83054 62.0299 6.87094C62.0299 6.88077 62.0198 6.91118 62.0198 6.93134C61.9392 7.06186 61.8687 7.08194 61.8485 7.27252C61.8081 7.60379 61.8786 7.94514 61.8889 8.28641C61.9088 8.61751 61.9188 8.94904 61.9293 9.30022C61.9495 9.6414 61.9293 9.983 61.9393 10.3139C61.9495 10.4845 61.9495 10.6552 61.9393 10.8261C61.9192 11.0066 61.8989 11.1673 61.9094 11.3382C61.9192 11.4285 61.9599 11.5391 61.9498 11.6093C61.9498 11.6599 61.9094 11.7097 61.9094 11.7599C61.8793 11.9711 61.9899 12.2217 61.869 12.4126C62 12.6034 61.8589 12.8239 61.9094 13.0752C61.9192 13.1355 61.98 13.2059 61.9899 13.2763C62.0303 13.4268 62.02 13.6478 62.0303 13.8587C62.0502 14.3504 62.1109 15.0534 62.0706 15.5053C62.0706 15.5557 62.0608 15.6054 62.0303 15.6558C62.1209 15.7965 62.0001 15.9471 62.0001 16.0977C62.0001 16.178 62.0507 16.2682 62.0608 16.3484C62.0707 16.4892 62.0001 16.6497 62.1012 16.7599C62.0307 16.7398 62.0608 16.8201 62.0307 16.8402C62.1819 17.0811 62.0507 17.6331 62.1819 17.854C62.0911 18.0447 62.212 18.3059 62.212 18.5167C62.212 18.5869 62.1919 18.6472 62.202 18.6973C62.212 18.7675 62.2319 18.8075 62.2625 18.8479C62.2221 18.8881 62.2325 18.9479 62.2325 18.9984C62.2325 19.0588 62.2224 19.129 62.2325 19.1993C62.2524 19.32 62.333 19.4302 62.333 19.5509C62.333 19.6112 62.303 19.6611 62.303 19.7213C62.303 19.8819 62.3936 20.0626 62.313 20.2335C62.333 20.2939 62.3636 20.3437 62.3835 20.404C62.313 20.5144 62.3835 20.5144 62.3936 20.625C62.4036 20.6754 62.4036 20.7152 62.3835 20.7656C62.6154 20.9666 62.323 21.4483 62.4136 21.7091C62.4338 21.7694 62.4642 21.7794 62.4943 21.8194C62.4641 21.8996 62.4337 21.9799 62.4337 22.1006C62.6556 22.0706 62.8673 21.9299 63.1091 21.8996C63.2804 21.8797 63.4621 21.9096 63.6434 21.8594C63.6938 21.8493 63.6938 21.7991 63.7441 21.7891C63.9356 21.7591 64.157 21.7791 64.3788 21.7289C64.5602 21.6887 64.7719 21.5981 64.9836 21.5482C65.1955 21.4981 65.3766 21.3976 65.5686 21.3273C65.8508 21.2069 66.2034 21.1667 66.4757 21.0462C66.5764 21.0059 66.7781 20.9153 66.7983 20.8655C66.8082 20.8456 66.7476 20.7953 66.8082 20.8053C67.02 20.7852 67.1611 20.6747 67.3224 20.6042C67.413 20.564 67.5241 20.5539 67.6047 20.524C67.7155 20.4736 67.8465 20.4636 67.9876 20.4238C68.1994 20.3636 68.4214 20.3134 68.6932 20.3134C68.7537 20.2936 68.7233 20.364 68.7739 20.3537C68.9351 20.2633 69.0964 20.1526 69.2879 20.0724C69.4192 20.0119 69.7315 19.8714 69.9229 19.9018C70.0136 19.9119 70.0842 20.0324 70.1951 20.0525C70.375 20.0608 70.4658 20.0207 70.627 19.9906ZM68.5708 31.2341C68.6006 31.1738 68.6212 31.0433 68.5304 31.0333C68.5204 31.0735 68.5306 31.2043 68.5708 31.2341Z"></path>
<path fill="#1A1A1A" d="M70.3248 19.5188C70.3248 19.4786 70.3651 19.4686 70.3546 19.4086C70.4759 19.3283 70.5864 19.1878 70.7477 19.2781C70.7678 19.3681 70.8283 19.4484 70.7881 19.5592C70.8486 19.6694 70.9591 19.6897 70.9897 19.8403C71.0198 20.0109 70.8486 20.0415 70.8083 20.1615C70.7579 20.1316 70.6873 20.1916 70.6067 20.1916C70.4556 20.1916 70.3548 20.1214 70.2842 20.0411C70.2642 19.9507 70.2438 19.8704 70.2543 19.7596C70.2947 19.7299 70.3148 19.6692 70.365 19.6494C70.3347 19.6192 70.3751 19.5289 70.3248 19.5188Z"></path>
</g>
<defs>
<clipPath id="clip0_1607_3987">
<rect fill="white" height="50" width="71"></rect>
</clipPath>
</defs>
</svg>
