<svg fill="none" viewBox="0 0 469 91" height="91" width="469" xmlns="http://www.w3.org/2000/svg">
<path fill="black" d="M21.448 89.08H26.056C49.224 89.08 61.384 73.976 64.456 61.176H66.632L63.432 91H0.072L49.736 2.808H43.592C23.24 2.808 9.672 11.128 5.576 26.744H3.144L5.448 0.887993H68.04L21.448 89.08ZM141.391 63.736H143.311V91H75.087V89.08C80.463 89.08 82.255 83.448 82.255 74.744V16.504C82.255 8.56799 80.719 2.808 75.087 2.808V0.887993H141.647V24.568H139.727C137.551 2.936 109.135 2.808 103.887 2.808H98.127V44.536H104.527C106.319 44.536 122.831 44.536 123.855 31.48H125.775V59.64H123.855C122.831 46.456 106.191 46.456 104.527 46.456H98.127V89.08H103.375C109.007 89.08 137.295 89.336 141.391 63.736ZM216.399 0.887993H254.031V2.808C235.087 2.67999 235.471 27.128 235.471 33.016V91H229.967L174.799 20.728V58.616C174.799 64.376 174.671 89.08 191.951 89.08V91H154.063V89.08C172.879 89.08 172.879 64.376 172.879 58.616V18.68L167.759 12.152C159.567 1.91199 155.855 3.064 152.527 2.808V0.887993H180.047L233.551 68.344V33.016C233.551 27.128 233.551 2.67999 216.399 2.808V0.887993ZM262.641 0.887993H298.353V2.808C292.849 2.808 288.369 5.62399 288.369 13.56V76.408C288.369 85.112 292.977 89.08 298.353 89.08V91H262.641V89.08C268.145 89.08 272.625 85.112 272.625 76.408V13.56C272.625 5.62399 268.273 2.808 262.641 2.808V0.887993ZM306.581 0.887993H374.165V24.568H372.245C368.917 1.91199 340.245 2.808 335.253 2.808H329.621V44.408H335.893C337.685 44.408 354.453 44.792 356.117 31.48H358.037V59.64H356.117C354.453 46.2 337.685 46.584 335.893 46.584H329.621V74.488C329.621 88.056 334.357 89.08 339.989 89.08V91H306.581V89.08C312.085 89.08 313.749 83.448 313.749 74.744V16.504C313.749 8.56799 312.213 2.808 306.581 2.808V0.887993ZM432.692 0.887993H468.404V2.808C463.924 2.808 454.324 2.808 440.116 30.968L431.028 49.912V76.024C431.028 85.624 435.892 88.952 441.268 88.952V91H405.556V88.952C410.932 88.952 415.796 85.624 415.796 76.024V54.904C396.98 21.624 391.22 12.664 391.22 12.664C385.588 2.936 381.364 2.808 377.652 2.67999V0.887993H414.516V2.67999C411.316 2.67999 402.868 2.424 411.572 17.144L430.004 47.864L439.22 28.92C441.396 24.44 450.612 2.808 432.692 2.808V0.887993Z"></path>
</svg>